<?xml version="1.0" encoding="UTF-8" standalone="no"?>
<!-- Created with Inkscape (http://www.inkscape.org/) -->

<svg
   xmlns:dc="http://purl.org/dc/elements/1.1/"
   xmlns:cc="http://creativecommons.org/ns#"
   xmlns:rdf="http://www.w3.org/1999/02/22-rdf-syntax-ns#"
   xmlns:svg="http://www.w3.org/2000/svg"
   xmlns="http://www.w3.org/2000/svg"
   xmlns:sodipodi="http://sodipodi.sourceforge.net/DTD/sodipodi-0.dtd"
   xmlns:inkscape="http://www.inkscape.org/namespaces/inkscape"
   width="364.23712"
   height="60.349678"
   id="svg7090"
   version="1.1"
   inkscape:version="0.48.1 r9760"
   sodipodi:docname="New document 190">
  <defs
     id="defs7092" />
  <sodipodi:namedview
     id="base"
     pagecolor="#ffffff"
     bordercolor="#666666"
     borderopacity="1.0"
     inkscape:pageopacity="0.0"
     inkscape:pageshadow="2"
     inkscape:zoom="2.8"
     inkscape:cx="207.17807"
     inkscape:cy="2.0701711"
     inkscape:document-units="px"
     inkscape:current-layer="layer1"
     showgrid="false"
     fit-margin-top="0"
     fit-margin-left="90"
     fit-margin-right="90"
     fit-margin-bottom="0"
     inkscape:window-width="1280"
     inkscape:window-height="769"
     inkscape:window-x="0"
     inkscape:window-y="31"
     inkscape:window-maximized="0" />
  <metadata
     id="metadata7095">
    <rdf:RDF>
      <cc:Work
         rdf:about="">
        <dc:format>image/svg+xml</dc:format>
        <dc:type
           rdf:resource="http://purl.org/dc/dcmitype/StillImage" />
        <dc:title></dc:title>
      </cc:Work>
    </rdf:RDF>
  </metadata>
  <g
     inkscape:label="Layer 1"
     inkscape:groupmode="layer"
     id="layer1"
     transform="translate(-186.45285,-445.04454)">
    <path
       style="fill:#000000"
       d="m 357.68394,505.00717 c -20.075,-0.38642 -42.35,-0.47615 -49.5,-0.19941 -14.5879,0.56462 -19.2718,-0.28397 -24.7611,-4.48606 -9.7285,-7.44718 -9.1816,-22.99982 1.0683,-30.3789 l 4.6928,-3.37845 52.5,0.0819 c 28.875,0.045 54.5989,0.40429 57.1642,0.7984 3.4221,0.52574 5.8909,1.7964 9.2707,4.77137 3.6418,3.20561 5.1257,3.92448 7.0858,3.43254 1.9486,-0.48906 2.4793,-1.26329 2.4793,-3.61678 0,-1.64699 0.5512,-3.87718 1.2249,-4.95599 0.9667,-1.54779 0.9667,-2.21982 0,-3.18643 -1.7095,-1.70952 -1.5286,-6.94645 0.3318,-9.60245 0.8864,-1.2655 2.6088,-2.22251 4,-2.22251 1.5051,0 2.4433,-0.57595 2.4433,-1.5 0,-4.69083 9.6924,-7.57075 12.6207,-3.75 0.9655,1.25971 1.5595,1.42201 2.1203,0.57928 2.6974,-4.05369 11.259,-1.60121 11.259,3.22516 0,2.54909 0.3498,2.80632 5.2928,3.89184 2.7556,0.60515 4.587,3.00722 3.2852,4.30899 -0.3679,0.36796 -1.5587,0.11336 -2.6462,-0.56577 -1.6673,-1.04126 -2.0815,-0.95695 -2.6425,0.53785 -0.366,0.97496 -1.3513,2.28645 -2.1896,2.91444 -1.3117,0.98261 -1.3293,1.37661 -0.1263,2.82621 1.1993,1.44498 1.1939,1.8131 -0.038,2.58956 -2.2538,1.42088 -4.1673,-1.90885 -3.4194,-5.9501 l 0.6278,-3.39253 -3.7761,0.61279 c -2.6441,0.42906 -4.2695,0.16635 -5.4216,-0.87625 -1.4576,-1.31907 -1.9764,-1.31638 -4.5459,0.0236 -1.5952,0.83194 -3.463,1.5154 -4.1505,1.51878 -0.6875,0.003 -1.25,0.61545 -1.25,1.36014 0,0.74469 -1.1571,2.60255 -2.5714,4.12858 -1.8285,1.97304 -2.2619,3.08414 -1.5,3.84603 1.6724,1.67239 1.2653,4.41285 -0.964,6.48976 -1.9583,1.82445 -1.9703,2.00962 -0.317,4.89023 1.4598,2.54369 1.5302,3.44805 0.4678,6.01299 -1.3107,3.16414 -4.6832,5.27843 -8.4197,5.27843 -1.5406,0 -3.0102,1.32441 -4.8503,4.37081 -3.5723,5.91408 -8.3245,9.28876 -13.8454,9.83188 -2.475,0.24349 -20.925,0.12655 -41,-0.25987 z m 43.8902,-1.91133 c 4.8217,-1.38285 9.8106,-7.40903 11.0961,-13.40323 1.7413,-8.11953 -1.0506,-14.0153 -8.9693,-18.94067 -3.3745,-2.09893 -4.8139,-2.20876 -35.517,-2.70994 -25.8591,-0.42211 -32.906,-0.25083 -36.7209,0.89252 -5.1567,1.54546 -5.6886,3.06369 -0.8231,2.3496 1.837,-0.26962 3.044,-0.005 3.044,0.66673 0,0.61242 -1.35,1.1135 -3,1.1135 -5.1012,0 -3.0798,3.44582 2.5,4.26168 l 3,0.43865 -3.3233,0.14983 c -4.6515,0.20971 -4.0263,3.4066 0.8346,4.26819 l 3.4887,0.61836 -3.143,0.13164 c -1.7287,0.0724 -3.3852,0.76265 -3.6811,1.53388 -0.7417,1.93289 0.1392,2.57564 3.7408,2.72941 l 3.0833,0.13164 -3.5,0.61836 c -4.3773,0.77335 -4.6807,3.34625 -0.5,4.24022 l 3,0.64151 -2.7148,0.11831 c -1.605,0.0699 -3.1524,0.93597 -3.7852,2.11832 -0.9641,1.80143 -0.7442,2.01588 2.2148,2.16003 l 3.2852,0.16004 -3.1649,0.39697 c -3.9217,0.4919 -5.4551,3.28296 -1.8037,3.28296 1.3577,0 2.4686,0.42852 2.4686,0.95228 0,1.27086 7.4621,1.62574 39.0066,1.85504 14.7596,0.10729 28.0032,-0.23654 29.8836,-0.77583 z m -65.3902,-3.03149 c -0.3399,-0.55 -0.1415,-1 0.441,-1 0.5824,0 1.059,0.45 1.059,1 0,0.55 -0.1985,1 -0.441,1 -0.2425,0 -0.7191,-0.45 -1.059,-1 z m 1.9035,-5.5 c 0.3723,-1.65 0.7338,-3.5625 0.8034,-4.25 0.07,-0.6875 0.5539,-1.25 1.0764,-1.25 0.5225,0 0.6499,1.0125 0.2831,2.25 -0.3667,1.2375 -0.7812,2.79947 -0.921,3.47105 -0.1398,0.67158 -0.6287,1.57158 -1.0865,2 -0.4578,0.42842 -0.5277,-0.57105 -0.1554,-2.22105 z m 0.8657,-10.5756 c -0.1275,-1.69378 0.1072,-1.85689 1.2762,-0.88669 0.7879,0.65389 1.186,1.58791 0.8846,2.07559 -0.9518,1.53994 -1.9986,0.96395 -2.1608,-1.1889 z m -0.2539,-5.6744 c -0.01,-1.2375 0.4347,-2.25 0.9847,-2.25 1.2529,0 1.2529,1.06124 0,3 -0.7839,1.21295 -0.9723,1.06943 -0.9847,-0.75 z m -2.2861,-3.85417 c -0.4011,-0.40104 -0.7292,-1.41917 -0.7292,-2.2625 0,-1.12559 0.2958,-1.2375 1.1125,-0.42083 0.6119,0.61187 0.94,1.63 0.7292,2.2625 -0.2109,0.6325 -0.7115,0.82187 -1.1125,0.42083 z m -9.1039,23.60417 c 0.7394,-2.475 1.3512,-6.25725 1.3595,-8.40499 0.014,-3.72005 -0.071,-3.82661 -1.8136,-2.25 -1.0058,0.91024 -2.4683,1.64067 -3.25,1.62318 -1.0716,-0.024 -0.9908,-0.35855 0.3288,-1.36024 2.1258,-1.61371 2.2436,-2.60795 0.309,-2.60795 -0.7925,0 -1.7629,-0.52089 -2.1564,-1.15753 -0.7195,-1.16415 0.9987,-0.93339 4.8474,0.65106 1.428,0.58787 1.7472,0.19471 1.7349,-2.13655 -0.021,-3.94262 -2.3767,-10.35334 -4.808,-13.08289 -1.9236,-2.15963 -2.7265,-2.27409 -15.952,-2.27409 -18.7512,0 -24.1418,2.03688 -28.1916,10.65253 -4.0045,8.51915 -1.5157,17.64256 6.1726,22.62776 l 4.2612,2.76302 17.9069,-0.27166 17.9069,-0.27165 1.3444,-4.5 z m 93.1747,-11.2 c 1.7898,-1.7898 1.4535,-3.50044 -0.8041,-4.09083 -1.3874,-0.36279 -1.8057,-1.04131 -1.3593,-2.20463 0.5104,-1.3301 0.1464,-1.61006 -1.7459,-1.34254 -2.0833,0.29453 -2.3458,0.78811 -2.0417,3.838 0.192,1.925 0.556,3.8375 0.809,4.25 0.7103,1.15802 3.8048,0.8872 5.142,-0.45 z m 4.4567,-4.92629 c -0.274,-1.04768 -0.9647,-2.19324 -1.5349,-2.54567 -0.666,-0.41157 -0.8065,0.22 -0.393,1.76558 0.3541,1.32351 0.6569,3.08138 0.6728,3.90638 0.024,1.22678 0.186,1.25215 0.8911,0.1393 0.4742,-0.74839 0.638,-2.2179 0.364,-3.26559 z m -2.2567,-5.76484 c 0,-2.11387 -1.6197,-0.19421 -2.4394,2.89113 -0.6383,2.40259 -0.6037,2.42437 0.8876,0.55887 0.8535,-1.06763 1.5518,-2.62013 1.5518,-3.45 z m -3,0.89113 c 0,-0.55 -0.7016,-1 -1.559,-1 -0.8575,0 -1.2809,0.45 -0.941,1 0.3399,0.55 1.0415,1 1.559,1 0.5175,0 0.941,-0.45 0.941,-1 z m 5,-5.33289 c 0,-1.63107 -4.2263,-1.48811 -4.7762,0.16156 -0.2312,0.69358 0.6632,1.17133 2.1929,1.17133 1.4856,0 2.5833,-0.56635 2.5833,-1.33289 z m 2,-10.5458 c 0,-0.96835 -1.0944,-2.71224 -2.4321,-3.8753 -2.0386,-1.77255 -2.6182,-1.89037 -3.5826,-0.72832 -1.5727,1.89494 -0.2774,5.43479 2.3526,6.42965 2.64,0.99859 3.6621,0.48893 3.6621,-1.82603 z m 25,-5.62131 c -0.7068,-0.85159 -1.51,-1.32334 -1.785,-1.04834 -0.275,0.275 0.078,1.19675 0.785,2.04834 0.7067,0.85158 1.51,1.32333 1.785,1.04833 0.275,-0.275 -0.078,-1.19675 -0.785,-2.04833 z m -14.405,-0.64551 c 1.8912,-2.12998 1.8892,-2.13722 -0.2793,-1 -1.2013,0.63003 -3.3654,1.14551 -4.809,1.14551 -1.4952,0 -2.3588,0.43035 -2.0067,1 1.0735,1.73704 5.1149,1.08454 7.095,-1.14551 z m 9.905,-0.53486 c 0,-0.63413 0.3375,-1.49047 0.75,-1.90297 1.4211,-1.42115 0.7457,-3.41666 -1.1564,-3.41666 -1.367,0 -1.7686,0.52686 -1.4194,1.86209 0.2975,1.13763 -0.1527,2.10753 -1.157,2.49294 -0.9042,0.34696 -1.3485,1.10893 -0.9874,1.69327 0.8423,1.36278 3.9702,0.7887 3.9702,-0.72867 z m -12.893,-1.90142 c -0.3339,-0.86999 -0.607,-2.24654 -0.607,-3.05902 0,-0.81248 -0.45,-1.19911 -1,-0.85919 -1.6814,1.03914 -1.1891,5.5 0.607,5.5 1.0545,0 1.3983,-0.54381 1,-1.58179 z m 9.393,-1.41821 c 0,-0.55 -1.35,-1 -3,-1 -1.65,0 -3,0.45 -3,1 0,0.55 1.35,1 3,1 1.65,0 3,-0.45 3,-1 z m -14.5,-2 c 0.9955,-1.1 1.306,-2 0.6902,-2 -0.6159,0 -1.6015,0.9 -2.1902,2 -0.5887,1.1 -0.8993,2 -0.6902,2 0.2091,0 1.1947,-0.9 2.1902,-2 z m 15.5,-1.60699 c 0,-0.21616 -0.675,-0.39301 -1.5,-0.39301 -0.825,0 -1.5,0.43587 -1.5,0.96861 0,0.53274 0.675,0.70959 1.5,0.39301 0.825,-0.31658 1.5,-0.75246 1.5,-0.96861 z"
       id="path7077"
       inkscape:connector-curvature="0" />
  </g>
</svg>
