<?xml version="1.0" encoding="UTF-8" standalone="no"?>
<!-- Created with Inkscape (http://www.inkscape.org/) -->

<svg
   xmlns:dc="http://purl.org/dc/elements/1.1/"
   xmlns:cc="http://creativecommons.org/ns#"
   xmlns:rdf="http://www.w3.org/1999/02/22-rdf-syntax-ns#"
   xmlns:svg="http://www.w3.org/2000/svg"
   xmlns="http://www.w3.org/2000/svg"
   xmlns:sodipodi="http://sodipodi.sourceforge.net/DTD/sodipodi-0.dtd"
   xmlns:inkscape="http://www.inkscape.org/namespaces/inkscape"
   width="264.46561"
   height="122.39544"
   id="svg4541"
   version="1.1"
   inkscape:version="0.48.1 r9760"
   sodipodi:docname="taku.svg">
  <defs
     id="defs4543" />
  <sodipodi:namedview
     id="base"
     pagecolor="#ffffff"
     bordercolor="#666666"
     borderopacity="1.0"
     inkscape:pageopacity="0.0"
     inkscape:pageshadow="2"
     inkscape:zoom="2.8"
     inkscape:cx="152.41277"
     inkscape:cy="33.602812"
     inkscape:document-units="px"
     inkscape:current-layer="layer1"
     showgrid="false"
     fit-margin-top="0"
     fit-margin-left="40"
     fit-margin-right="40"
     fit-margin-bottom="5"
     inkscape:window-width="1280"
     inkscape:window-height="769"
     inkscape:window-x="0"
     inkscape:window-y="31"
     inkscape:window-maximized="0" />
  <metadata
     id="metadata4546">
    <rdf:RDF>
      <cc:Work
         rdf:about="">
        <dc:format>image/svg+xml</dc:format>
        <dc:type
           rdf:resource="http://purl.org/dc/dcmitype/StillImage" />
        <dc:title />
      </cc:Work>
    </rdf:RDF>
  </metadata>
  <g
     inkscape:label="Layer 1"
     inkscape:groupmode="layer"
     id="layer1"
     transform="translate(-243.64629,-411.84045)">
    <path
       style="fill:#000000"
       d="m 350.59998,517.99503 c -2.86873,-1.49493 -5.90755,-2.09436 -10.74482,-2.1195 -3.70966,-0.0193 -6.74716,-0.43037 -6.75,-0.91354 -0.009,-1.49962 15.25688,-0.0833 18.75385,1.73999 2.58392,1.34721 3.70045,1.46296 5.38993,0.55878 2.02894,-1.08586 5.32211,-0.97734 18.35104,0.60469 3.8766,0.47072 5.84255,0.16715 8.75,-1.35112 2.06251,-1.07704 3.75001,-1.56832 3.75001,-1.09173 0,0.47659 -1.4385,1.61039 -3.19667,2.51958 -2.64334,1.36692 -4.59062,1.51217 -11.25,0.83915 -10.34484,-1.04548 -15.49086,-0.90333 -16.85992,0.46574 -1.32082,1.32081 -1.21522,1.34216 -6.19342,-1.25204 z m -24.27749,-4.21125 c -1.22238,-0.85619 -2.19205,-2.31869 -2.15483,-3.25 0.0521,-1.30406 0.31322,-1.18483 1.13584,0.51864 0.58748,1.21657 2.24452,2.64355 3.68232,3.17106 1.43779,0.52751 1.92679,0.99463 1.08667,1.03805 -0.84012,0.0434 -2.52762,-0.62157 -3.75,-1.47775 z m 69.63828,-1.41003 c -2.88626,-2.4045 -2.2054,-2.55076 2.03248,-0.43663 4.91247,2.45066 5.80596,2.059 20.05609,-8.79164 6.95481,-5.29567 12.03689,-7.805 15.80728,-7.805 2.4454,0 3.55069,-0.58039 4.31976,-2.26832 1.07602,-2.36161 2.07756,-3.10969 15.67446,-11.70785 8.539,-5.39974 12.2491,-9.31554 12.2491,-12.9282 0,-1.1526 0.45,-2.09563 1,-2.09563 1.9639,0 0.9501,3.78788 -2.0112,7.51409 -3.5547,4.47312 -6.3468,6.61431 -17.1081,13.11979 -6.2834,3.79846 -8.149,5.45786 -8.58457,7.63569 -0.42648,2.13245 -0.98186,2.64754 -2.37713,2.2047 -3.66715,-1.16391 -9.96121,1.72865 -20.74999,9.53605 -12.07515,8.73829 -15.74302,9.8261 -20.30818,6.02295 z m -20.07667,-5.05016 c -4.24373,-0.40542 -15.60623,-1.06585 -25.25,-1.46762 -9.64377,-0.40176 -17.53412,-1.04569 -17.53412,-1.43096 0,-0.78513 9.64712,-0.44996 37.32408,1.29675 12.93669,0.81645 19.03549,0.86441 19.50001,0.15336 0.5487,-0.8399 0.39275,-39.65991 -0.16145,-40.19027 -0.0894,-0.0856 -7.35494,-0.30169 -16.14552,-0.4802 l -15.98288,-0.32457 -0.89019,2.9802 c -1.74607,5.84553 -2.62024,7.4802 -4.00016,7.4802 -2.3556,0 -3.97275,-2.89737 -4.07645,-7.30357 l -0.0988,-4.19643 -11.73434,-0.28174 -11.73434,-0.28173 0,20.03173 0,20.03174 3,0 c 1.65,0 3,0.34185 3,0.75966 0,0.41782 -1.4625,0.75532 -3.25,0.75 -2.41189,-0.007 -3.37903,-0.52542 -3.75036,-2.00966 -0.27519,-1.1 -0.35532,-14.22977 -0.17805,-29.17726 l 0.3223,-27.17725 3.07728,-1.07275 c 3.6991,-1.28951 5.07641,-1.36325 4.37876,-0.23443 -0.69064,1.11748 28.02865,2.96212 47.40007,3.04452 l 15.50001,0.0659 13.05514,-6.72438 c 7.18032,-3.69841 22.37648,-11.44938 33.76923,-17.22438 24.48468,-12.4113 24.85988,-11.88001 -7.64287,-10.82292 l -20.81851,0.67708 -10.90083,4.57299 c -5.99546,2.51515 -14.17713,5.6482 -18.18151,6.96233 -10.05102,3.2985 -42.68376,15.51834 -45.981,17.2183 -3.08835,1.59226 -5.71422,1.8875 -4.24966,0.47781 1.30078,-1.25205 40.16393,-16.15207 48.45,-18.57559 5.40275,-1.58021 27.00001,-10.77213 27.00001,-11.49137 0,-0.70379 9.25162,-0.98671 44.90715,-1.37328 l 13.4071,-0.14535 0.2307,6.5 c 0.1269,3.575 -0.2599,14.92523 -0.8595,25.22273 l -1.0903,18.72274 -2.5476,0.89119 c -5.2312,1.82998 -42.73359,24.55658 -53.04755,32.14707 -18.36624,13.51652 -18.35968,13.51422 -34.21589,11.99938 z m 37.71589,-16.16472 c 7.88389,-5.61531 33.15835,-21.12928 42.49995,-26.0873 l 8.5,-4.51135 0.6508,-8.35987 c 0.9271,-11.90974 0.9806,-25.86029 0.099,-25.8575 -0.4125,10e-4 -6.7697,3.37631 -14.1272,7.5 -7.3575,4.1237 -13.78114,7.49763 -14.27479,7.49763 -1.52139,0 -3.05887,5.18919 -1.88522,6.36284 2.79113,2.79112 -0.72477,9.20866 -4.63844,8.46649 -1.30615,-0.24769 -1.91256,-1.40885 -2.13477,-4.08765 -0.24058,-2.90045 -0.73753,-3.74168 -2.21033,-3.74168 -1.04498,0 -8.19334,3.3369 -15.88524,7.41535 -7.6919,4.07844 -14.86559,7.69474 -15.94152,8.03623 -1.71836,0.54539 -1.99859,1.73646 -2.30439,9.79454 -0.19148,5.04551 -0.18956,14.435 0.004,20.86552 l 0.35242,11.69187 8.14758,-5.71194 c 4.48144,-3.14156 10.39785,-7.31449 13.14785,-9.27318 z m -59.50001,-18.23661 c 0,-0.23001 0.27886,-1.14491 0.61969,-2.03309 0.53828,-1.40273 0.27964,-1.45995 -1.96864,-0.43556 -2.64014,1.20293 -2.69382,2.88687 -0.092,2.88687 0.79254,0 1.44098,-0.1882 1.44098,-0.41822 z m -1.5,-4.58178 c 0.33992,-0.55 -0.0835,-1 -0.94098,-1 -0.85746,0 -1.55902,0.45 -1.55902,1 0,0.55 0.42344,1 0.94098,1 0.51755,0 1.2191,-0.45 1.55902,-1 z m 38.30426,-10.39575 c 0.16734,-3.24266 -0.0577,-6.23613 -0.5,-6.65215 -0.44234,-0.41602 -6.20426,-1.03349 -12.80426,-1.37216 -6.6,-0.33866 -15.6,-0.82713 -20,-1.08548 -4.4,-0.25836 -13.5125,-0.72796 -20.25,-1.04357 l -12.25,-0.57383 0,6.99408 c 0,5.80639 0.29717,7.07787 1.75,7.4875 0.9625,0.27138 11.65,0.79321 23.75,1.15962 12.1,0.36642 22.20369,0.86589 22.45265,1.10995 0.24895,0.24406 4.29895,0.31505 8.99999,0.15776 l 8.54737,-0.28597 z m 3.74575,4.5249 c 0.5225,-0.47897 5.675,-3.34029 11.45,-6.35848 11.03908,-5.76937 13.72879,-7.20599 42.24995,-22.56644 l 17.75,-9.55949 0,-5.29974 0,-5.29974 -24.74995,12.65451 c -13.6125,6.95999 -30.25844,15.3873 -36.99097,18.72737 l -12.24097,6.07286 -0.009,6.25 c -0.009,6.04526 0.54214,7.21144 2.54097,5.37915 z m 38.95555,-9.13528 c 2.21174,-2.44395 1.45156,-3.45091 -1.95898,-2.59492 -1.65664,0.41579 -2.54657,1.33142 -2.54657,2.6201 0,2.54981 2.18627,2.53759 4.50555,-0.0252 z m -1.01263,-4.98242 c 0.35034,-0.56686 -0.0511,-0.73451 -0.94098,-0.39301 -1.73242,0.66479 -2.04939,1.38156 -0.61096,1.38156 0.51754,0 1.21592,-0.44485 1.55194,-0.98855 z m -123.04108,51.93534 c -1.92907,-2.13159 -2.07595,-3.81559 -1.45078,-16.63252 0.24733,-5.07059 -0.0553,-7.67466 -1.02804,-8.84678 -1.18614,-1.42921 -1.14089,-1.79405 0.32421,-2.61396 1.43427,-0.80266 1.70276,-2.60074 1.70276,-11.40322 0,-9.25632 0.23803,-10.68834 2.08333,-12.53365 1.14584,-1.14583 2.30834,-1.85833 2.58334,-1.58333 0.275,0.275 -0.42738,1.42738 -1.56085,2.56085 -1.836,1.836 -2.0406,3.15348 -1.87528,12.07528 0.11814,6.37548 -0.22686,10.42686 -0.94946,11.14946 -0.78578,0.78578 -0.83547,1.92292 -0.16149,3.69563 0.56907,1.49674 0.68842,6.44497 0.28727,11.90986 -0.65141,8.8742 -0.5687,9.47441 1.62774,11.81242 1.27272,1.35474 1.85533,2.46317 1.2947,2.46317 -0.56063,0 -1.85548,-0.92394 -2.87745,-2.05321 z"
       id="path4504"
       inkscape:connector-curvature="0"
       sodipodi:nodetypes="sscsssssssssscsscssssssssscssssscsssscscssscccccsscsscssscssscssssssscsscsscccscscsssssssssccccccsssccsssssscssscssscscscsscccsscccccssccscsssscssssssssssss" />
    <text
       xml:space="preserve"
       style="font-size:40px;font-style:normal;font-variant:normal;font-weight:normal;font-stretch:normal;line-height:125%;letter-spacing:0px;word-spacing:0px;fill:#000000;fill-opacity:1;stroke:none;font-family:Linux Libertine O;-inkscape-font-specification:Linux Libertine O"
       x="283.21429"
       y="475.57648"
       id="text4556"
       sodipodi:linespacing="125%"><tspan
         sodipodi:role="line"
         id="tspan4558"
         x="283.21429"
         y="475.57648"
         style="font-size:8px">50cm</tspan></text>
    <text
       xml:space="preserve"
       style="font-size:40px;font-style:normal;font-variant:normal;font-weight:normal;font-stretch:normal;line-height:125%;letter-spacing:0px;word-spacing:0px;fill:#000000;fill-opacity:1;stroke:none;font-family:Linux Libertine O;-inkscape-font-specification:Linux Libertine O"
       x="347.5"
       y="529.14789"
       id="text4560"
       sodipodi:linespacing="125%"><tspan
         sodipodi:role="line"
         id="tspan4562"
         x="347.5"
         y="529.14789"
         style="font-size:8px">50cm</tspan></text>
    <text
       xml:space="preserve"
       style="font-size:40px;font-style:normal;font-variant:normal;font-weight:normal;font-stretch:normal;line-height:125%;letter-spacing:0px;word-spacing:0px;fill:#000000;fill-opacity:1;stroke:none;font-family:Linux Libertine O;-inkscape-font-specification:Linux Libertine O"
       x="441.07144"
       y="505.93359"
       id="text4564"
       sodipodi:linespacing="125%"><tspan
         sodipodi:role="line"
         id="tspan4566"
         x="441.07144"
         y="505.93359"
         style="font-size:8px">100cm</tspan></text>
  </g>
</svg>
