<?xml version="1.0" encoding="UTF-8" standalone="no"?>
<!-- Created with Inkscape (http://www.inkscape.org/) -->

<svg
   xmlns:dc="http://purl.org/dc/elements/1.1/"
   xmlns:cc="http://creativecommons.org/ns#"
   xmlns:rdf="http://www.w3.org/1999/02/22-rdf-syntax-ns#"
   xmlns:svg="http://www.w3.org/2000/svg"
   xmlns="http://www.w3.org/2000/svg"
   xmlns:sodipodi="http://sodipodi.sourceforge.net/DTD/sodipodi-0.dtd"
   xmlns:inkscape="http://www.inkscape.org/namespaces/inkscape"
   width="340.73068"
   height="63.799721"
   id="svg10894"
   version="1.1"
   inkscape:version="0.48.1 r9760"
   sodipodi:docname="New document 360">
  <defs
     id="defs10896" />
  <sodipodi:namedview
     id="base"
     pagecolor="#ffffff"
     bordercolor="#666666"
     borderopacity="1.0"
     inkscape:pageopacity="0.0"
     inkscape:pageshadow="2"
     inkscape:zoom="2.8"
     inkscape:cx="171.44895"
     inkscape:cy="15.771986"
     inkscape:document-units="px"
     inkscape:current-layer="layer1"
     showgrid="false"
     fit-margin-left="80"
     fit-margin-right="80"
     fit-margin-top="0"
     fit-margin-bottom="0"
     inkscape:window-width="1280"
     inkscape:window-height="769"
     inkscape:window-x="0"
     inkscape:window-y="31"
     inkscape:window-maximized="0" />
  <metadata
     id="metadata10899">
    <rdf:RDF>
      <cc:Work
         rdf:about="">
        <dc:format>image/svg+xml</dc:format>
        <dc:type
           rdf:resource="http://purl.org/dc/dcmitype/StillImage" />
        <dc:title></dc:title>
      </cc:Work>
    </rdf:RDF>
  </metadata>
  <g
     inkscape:label="Layer 1"
     inkscape:groupmode="layer"
     id="layer1"
     transform="translate(-89.63364,-351.89085)">
    <path
       style="fill:#000000"
       d="m 186.63245,414.97172 c -6.5e-4,-0.4125 5.06185,-0.75 11.25,-0.75 10.58452,0 11.25119,-0.1185 11.25119,-2 0,-1.92334 -0.75705,-2.01039 -19.75,-2.27114 l -19.75,-0.27114 0,-25.47886 0,-25.47886 19.5,0 19.5,0 0,-3.09371 0,-3.0937 -10.00098,0.3437 c -5.50053,0.18904 -10.00053,0.006 -10,-0.40629 5.4e-4,-0.4125 9.33848,-0.66285 20.75098,-0.55633 15.86574,0.14808 18.39614,0.32462 10.75,0.75 -9.85164,0.54808 -10,0.59342 -10,3.05633 l 0,2.5 17.84976,0.27348 c 16.81786,0.25767 17.87959,0.38775 18.36659,2.25 0.2843,1.08709 1.3037,1.97652 2.2654,1.97652 0.9617,0 2.9204,0.92179 4.3527,2.04843 2.098,1.65027 4.2137,2.07975 10.8848,2.20959 l 8.2807,0.16118 0.3146,-3.77939 c 0.3512,-4.22048 -0.8953,-6.31252 -4.1372,-6.94359 -1.8024,-0.35086 -1.7098,-0.44731 0.5375,-0.56004 3.2448,-0.16277 4.7851,2.18653 4.7851,7.29808 0,3.81539 1.8435,4.88037 2.7103,1.56574 0.6548,-2.50411 1.9519,-2.50795 7.4305,-0.022 5.431,2.46438 12.8592,2.7318 12.8592,0.46294 0,-0.85745 -0.454,-1.27841 -1.0089,-0.93545 -1.3695,0.84638 -4.9911,-0.38565 -4.9911,-1.69792 0,-0.64792 1.1933,-0.81896 3.0804,-0.44154 3.6268,0.72537 3.6282,-1.17884 0,-3.00238 -1.3699,-0.68896 -1.8343,-1.39912 -1.1794,-1.80384 0.594,-0.36714 2.3213,0.5763 3.8385,2.09654 1.927,1.93102 3.5871,2.67798 5.5083,2.47847 1.9571,-0.20325 2.75,0.16863 2.75,1.28978 2e-4,1.08374 -0.936,1.57536 -2.9998,1.57536 -6.1269,0 -3.5095,2.50667 11.4272,10.94376 6.0099,3.39475 12.1971,7.07659 13.7493,8.18186 1.8116,1.29003 3.5645,1.77397 4.8955,1.35155 1.8196,-0.57751 1.9892,-1.16707 1.3864,-4.8176 -0.3777,-2.28776 -0.7479,-4.19573 -0.8226,-4.23992 -0.075,-0.0442 -1.7108,-0.56075 -3.6358,-1.14791 l -3.5,-1.06756 3,-0.0868 c 4.3427,-0.12562 5.2783,0.83849 6.2143,6.40356 l 0.8375,4.97904 7.2662,0.12545 c 3.9965,0.069 7.5473,0.40651 7.8908,0.75 0.3435,0.3435 -3.0504,0.62454 -7.5421,0.62454 -7.8889,0 -8.1667,0.0794 -8.1667,2.33333 0,1.28334 0.2993,2.63262 0.6651,2.9984 1.0703,1.07029 1.2867,5.66827 0.2667,5.66827 -0.5125,0 -0.9318,-0.54 -0.9318,-1.2 0,-0.93333 -0.2666,-0.93333 -1.2,0 -0.66,0.66 -2.535,1.2 -4.1666,1.2 -1.6317,0 -2.6427,-0.32398 -2.2467,-0.71996 0.396,-0.39598 1.7085,-0.73348 2.9166,-0.75 1.4892,-0.0204 2.1077,-0.56944 1.9202,-1.70463 -0.1521,-0.92103 0.1854,-1.96008 0.75,-2.30902 0.5646,-0.34893 1.0265,-1.73286 1.0265,-3.07541 0,-2.25699 -0.3705,-2.44098 -4.9166,-2.44098 -2.7042,0 -5.0667,0.40032 -5.25,0.8896 -0.3715,0.99147 -13.7331,8.80781 -21.082,12.33271 -3.9725,1.90536 -4.7489,2.73035 -4.75,5.04674 -0.001,2.44144 0.2893,2.69611 2.4551,2.15252 2.0366,-0.51114 2.5655,-0.18222 3.0942,1.92411 0.7862,3.1327 -0.067,4.65432 -2.6097,4.65432 -2.1208,0 -2.6442,-2.44733 -0.771,-3.60503 0.7866,-0.48618 0.9607,-0.1779 0.5314,0.94099 -0.3512,0.91522 -0.1886,1.66404 0.3614,1.66404 1.5026,0 2.3489,-2.9883 1.178,-4.15923 -0.6997,-0.69973 -2.0616,0.11459 -4.2934,2.56722 -1.7978,1.9756 -3.9321,3.59201 -4.7429,3.59201 -0.9256,0 -0.4936,-0.77131 1.1607,-2.07258 2.1574,-1.69705 2.6348,-2.89784 2.6348,-6.62723 l 0,-4.55465 -5.0326,0.48358 c -3.2661,0.31383 -5.8336,1.23602 -7.3144,2.62722 -3.1451,2.95464 -5.653,2.79655 -5.653,-0.35634 0,-2.53637 -2.9245,-3.72443 -3.077,-1.25 -0.3422,5.55514 -1.241,10.42824 -2.1181,11.48516 -1.293,1.55799 -4.8049,1.67337 -4.8049,0.15785 0,-0.60884 0.6034,-0.87548 1.3407,-0.59252 2.4595,0.94379 3.4825,-0.763 3.7795,-6.30565 l 0.2944,-5.49484 -7.7186,-0.29227 c -6.9683,-0.26385 -8.0426,-0.0451 -11.0516,2.25 -1.8332,1.39825 -4.48,2.54227 -5.8818,2.54227 -1.4017,0 -2.8076,0.675 -3.1242,1.5 -0.4813,1.25441 -3.446,1.5 -18.10697,1.5 l -17.53138,0 0,2.46379 c 0,2.42757 0.14334,2.46859 9.75,2.79071 5.3625,0.17981 -0.0375,0.4211 -12,0.53621 -11.9625,0.11511 -21.75054,-0.12821 -21.75119,-0.54071 z m 58.76887,-30.54295 -0.26768,-24.20705 -37,0 -37,0 -0.26936,22.97836 c -0.14815,12.6381 -0.0466,23.55885 0.22566,24.26835 0.39245,1.02273 8.16915,1.27728 37.53704,1.22868 l 37.04202,-0.0613 -0.26768,-24.20704 z m 28.31567,15.04295 c 0.046,-0.6875 0.2066,-2.375 0.3573,-3.75 0.4384,-3.99877 -1.4166,-6.99595 -4.3512,-7.03041 -2.3925,-0.0281 -2.4431,-0.11535 -0.6647,-1.14749 1.61,-0.93442 2.3159,-0.66234 4.3168,1.66387 1.8459,2.146 2.3242,3.72085 2.0949,6.89749 -0.224,3.1021 0.068,4.11654 1.1832,4.11654 0.9462,0 1.3923,-0.82389 1.2362,-2.28362 -0.3063,-2.86462 2.2407,-3.96531 4.5314,-1.95825 2.9741,2.60584 8.0026,4.74187 11.1631,4.74187 2.9502,0 3.0496,-0.14754 3.0496,-4.52475 0,-3.96969 -0.3237,-4.64782 -2.6386,-5.52798 -3.0785,-1.17044 -2.5307,-2.45316 0.6206,-1.45301 2.5588,0.81215 4.0004,4.14743 3.3233,7.68914 -0.7649,4.0013 0.9144,4.05627 7.256,0.23753 3.2157,-1.93638 7.289,-4.20511 9.0518,-5.04161 1.7628,-0.83651 3.9908,-2.38906 4.951,-3.45012 1.6881,-1.86531 1.6455,-1.9292 -1.2869,-1.9292 -3.01,0 -8.1415,1.89395 -11.5556,4.26492 -2.3268,1.61586 -3.685,-0.36029 -3.7062,-5.39247 -0.016,-3.85529 2.22,-6.91877 3.5177,-4.81897 1.9572,3.16677 19.2336,6.74652 18.2449,3.78042 -0.3731,-1.11936 -23.4993,-14.8227 -25.028,-14.83021 -0.4125,-0.002 -0.75,2.46094 -0.75,5.47326 0,4.71963 -0.3412,5.70054 -2.4679,7.09401 -1.3574,0.88939 -3.0406,1.42619 -3.7405,1.19289 -0.7159,-0.23862 0.036,-1.05119 1.7179,-1.85749 2.8281,-1.35544 2.9905,-1.75856 2.9905,-7.41983 l 0,-5.98653 -3.2607,-0.31416 c -2.1508,-0.20722 -4.1539,0.38844 -5.8848,1.75 -1.4433,1.13529 -3.4084,2.06416 -4.3669,2.06416 -0.9585,0 -2.3153,0.68999 -3.0152,1.53331 -1.7883,2.15478 -3.3841,1.30692 -3.9822,-2.11581 -0.7442,-4.25911 -2.4479,-3.13637 -2.7539,1.81485 -0.4353,7.04518 -1.0352,8.49607 -3.7255,9.01035 -3.1202,0.59646 -3.2732,-0.43393 -0.2608,-1.75557 1.855,-0.81382 2.3031,-1.90888 2.5523,-6.23713 0.2958,-5.13773 0.2423,-5.25198 -2.5,-5.34274 -6.384,-0.21126 -11.8232,0.31553 -12.1356,1.17535 -0.1833,0.50457 -0.8433,0.91739 -1.4666,0.91739 -0.6232,0 -3.0753,0.74169 -5.4489,1.64821 l -4.3158,1.6482 0.2823,10.50829 c 0.2503,9.31429 0.4912,10.53872 2.1201,10.77618 1.0107,0.14735 2.6211,0.97692 3.5787,1.84351 0.9576,0.86659 2.4665,1.57561 3.3533,1.57561 0.8867,0 1.8903,0.45 2.2302,1 0.9424,1.5247 15.4806,1.29146 15.5834,-0.25 z"
       id="path10881"
       inkscape:connector-curvature="0" />
  </g>
</svg>
