<?xml version="1.0" encoding="UTF-8" standalone="no"?>
<!-- Created with Inkscape (http://www.inkscape.org/) -->

<svg
   xmlns:dc="http://purl.org/dc/elements/1.1/"
   xmlns:cc="http://creativecommons.org/ns#"
   xmlns:rdf="http://www.w3.org/1999/02/22-rdf-syntax-ns#"
   xmlns:svg="http://www.w3.org/2000/svg"
   xmlns="http://www.w3.org/2000/svg"
   xmlns:sodipodi="http://sodipodi.sourceforge.net/DTD/sodipodi-0.dtd"
   xmlns:inkscape="http://www.inkscape.org/namespaces/inkscape"
   width="360"
   height="280.00003"
   id="svg11425"
   version="1.1"
   inkscape:version="0.48.1 r9760"
   sodipodi:docname="train2.svg">
  <defs
     id="defs11427" />
  <sodipodi:namedview
     id="base"
     pagecolor="#ffffff"
     bordercolor="#666666"
     borderopacity="1.0"
     inkscape:pageopacity="0.0"
     inkscape:pageshadow="2"
     inkscape:zoom="0.98994949"
     inkscape:cx="77.306693"
     inkscape:cy="119.19916"
     inkscape:document-units="px"
     inkscape:current-layer="layer1"
     showgrid="false"
     fit-margin-top="0"
     fit-margin-left="30"
     fit-margin-right="30"
     fit-margin-bottom="0"
     inkscape:window-width="1280"
     inkscape:window-height="769"
     inkscape:window-x="0"
     inkscape:window-y="31"
     inkscape:window-maximized="0" />
  <metadata
     id="metadata11430">
    <rdf:RDF>
      <cc:Work
         rdf:about="">
        <dc:format>image/svg+xml</dc:format>
        <dc:type
           rdf:resource="http://purl.org/dc/dcmitype/StillImage" />
      </cc:Work>
    </rdf:RDF>
  </metadata>
  <g
     inkscape:label="Layer 1"
     inkscape:groupmode="layer"
     id="layer1"
     transform="translate(-99.764269,-383.11976)">
    <path
       style="fill:#000000"
       d="m 149.60203,655.60243 c -0.094,-0.24768 0.037,-0.66059 0.29103,-0.91758 0.42766,-0.43267 0.49601,-0.43267 0.92367,0 0.5769,0.58364 0.3121,1.36792 -0.46184,1.36792 -0.32013,0 -0.65892,-0.20265 -0.75286,-0.45034 z m 2.50232,0.10778 c -0.4463,-0.45153 -0.42851,-0.93939 0.0489,-1.34023 0.79462,-0.66717 1.93533,0.48687 1.27586,1.29077 -0.3962,0.48297 -0.87844,0.50098 -1.32474,0.0494 z m 2.48309,-0.0856 c -0.28025,-0.34163 -0.28025,-0.51478 0,-0.85641 0.1932,-0.23551 0.51064,-0.4282 0.70542,-0.4282 0.19479,0 0.51224,0.19269 0.70543,0.4282 0.28025,0.34163 0.28025,0.51478 0,0.85641 -0.19319,0.23551 -0.51064,0.4282 -0.70543,0.4282 -0.19478,0 -0.51222,-0.19269 -0.70542,-0.4282 z m 3.69789,0.0362 c -0.17687,-0.21561 -0.23969,-0.60794 -0.13959,-0.87185 0.25196,-0.66426 1.62359,-0.48437 1.75774,0.23053 0.16949,0.90323 -1.01741,1.37363 -1.61815,0.64132 z m 3.52276,-0.0723 c -0.20151,-0.53127 0.28437,-1.24842 0.84581,-1.24842 0.57227,0 1.00668,0.98346 0.61116,1.3836 -0.47094,0.47645 -1.25248,0.40394 -1.45697,-0.13518 z m 3.78696,0.0398 c -0.41409,-0.50478 -0.1849,-1.28824 0.37686,-1.28824 0.21866,0 0.55564,0.19269 0.74883,0.4282 0.28026,0.34163 0.28026,0.51478 0,0.85641 -0.44163,0.53835 -0.68639,0.53915 -1.12569,0.003 z m 2.81872,-0.2891 c 0,-0.56634 0.14218,-0.71367 0.68876,-0.71367 0.84653,0 1.1675,0.45617 0.71182,1.01164 -0.57021,0.69509 -1.40058,0.51844 -1.40058,-0.29797 z m 3.49554,0.30515 c -0.40435,-1.06604 0.81543,-1.81238 1.53282,-0.93788 0.37891,0.46189 0.0945,0.92559 -0.72667,1.18487 -0.44981,0.14202 -0.68606,0.0697 -0.80615,-0.24699 z m 14.63387,0.19716 c -1.23972,-0.0713 -1.76357,-0.21543 -1.76357,-0.48539 0,-0.21122 0.20085,-0.46202 0.44633,-0.55732 0.75651,-0.29368 4.86991,-0.19239 5.06362,0.12469 0.29874,0.48902 -0.44583,1.13339 -1.24141,1.07438 -0.40777,-0.0303 -1.53502,-0.10062 -2.50497,-0.15636 z m 7.75966,-0.0217 c -0.92973,-0.10824 -1.02715,-0.78968 -0.15302,-1.07037 1.05614,-0.33912 4.99992,-0.25888 5.36369,0.10915 0.20973,0.21218 0.23425,0.43367 0.0659,0.59539 -0.27992,0.26892 -3.9332,0.5222 -5.27657,0.36583 z m 9.94649,-0.0325 c -1.62156,-0.12465 -2.11627,-0.26277 -2.11627,-0.59088 0,-0.76325 4.96394,-0.92529 5.69479,-0.18589 0.27521,0.27843 -0.50266,1.0469 -1.003,0.99087 -0.25259,-0.0283 -1.41157,-0.12464 -2.57552,-0.2141 z m -28.03649,-0.26782 c -0.79477,-0.17757 -0.79864,-0.18806 -0.25285,-0.6864 0.53967,-0.49275 1.12712,-0.51811 5.36304,-0.23146 0.19399,0.0132 0.35271,0.28078 0.35271,0.5948 0,0.52753 -0.17698,0.56836 -2.3279,0.53716 -1.28035,-0.0186 -2.6911,-0.11492 -3.135,-0.2141 z M 129.9416,625.0082 c -0.26364,-4.02766 -0.22622,-9.71788 0.0651,-9.90003 0.13761,-0.086 0.40663,0.0343 0.59782,0.26732 0.25219,0.30741 0.29275,1.09033 0.14773,2.85154 l -0.1999,2.42778 5.88035,0.0278 c 27.90667,0.13206 57.77963,0.14714 60.25484,0.0304 l 3.01955,-0.14239 0.0843,-1.3139 c 0.0603,-0.9397 0.20485,-1.31392 0.50756,-1.31392 0.29262,0 0.4668,0.39649 0.56433,1.28461 l 0.14109,1.28461 1.69302,0.18596 c 0.93116,0.10227 15.56519,0.17593 32.52007,0.16369 l 30.82705,-0.0222 0.0281,-0.87737 c 0.0448,-1.3986 0.38184,-2.29429 0.90131,-2.3955 0.41111,-0.0801 0.48142,0.15939 0.48142,1.63995 l 0,1.73373 5.43177,0.0247 c 2.98747,0.0136 8.35222,0.0865 11.92168,0.16217 3.56944,0.0756 16.04488,0.049 27.72318,-0.0592 l 21.23327,-0.19667 0,-1.05028 c 0,-0.97428 0.38924,-1.73541 0.88749,-1.73541 0.11565,0 0.24897,0.60767 0.29627,1.35037 l 0.086,1.35037 16.78911,-0.0188 c 9.23401,-0.0103 23.22726,-0.11935 31.09614,-0.24223 l 14.30703,-0.22341 0.28464,-1.46498 c 0.15656,-0.80574 0.26437,-1.94277 0.23958,-2.52673 -0.0248,-0.58397 0.0456,-1.15347 0.1564,-1.26557 0.36913,-0.37346 0.85489,0.44467 0.82656,1.3921 -0.0154,0.51437 -0.0692,2.9906 -0.11961,5.50272 -0.0916,4.56671 -0.0918,4.56751 -0.76511,4.66382 l -0.67347,0.0963 0.18299,-2.23735 c 0.10064,-1.23054 0.0703,-2.41187 -0.0676,-2.62518 -0.21013,-0.32529 -4.34007,-0.34525 -25.61023,-0.12376 -13.94783,0.14524 -27.83573,0.25553 -30.86201,0.2451 l -5.50231,-0.019 0,1.14187 c 0,0.94428 -0.0958,1.14187 -0.55375,1.14187 -0.40343,0 -0.61912,-0.27963 -0.79455,-1.03009 l -0.2408,-1.03009 -33.06583,0.0458 -33.06582,0.0458 -0.0229,1.84075 c -0.0125,1.01241 0.0982,2.00132 0.24617,2.19759 0.19813,0.26281 0.0838,0.35683 -0.43404,0.35683 -0.59322,0 -0.73038,-0.16725 -0.87796,-1.0705 -0.0962,-0.58878 -0.17629,-1.64858 -0.178,-2.35512 l -0.003,-1.28461 -32.73169,0 -32.7317,0 -1e-5,0.78504 c -10e-6,1.049 -0.78742,1.04174 -1.15003,-0.0106 l -0.27416,-0.79564 -34.20642,0.0106 -34.20642,0.0106 0.0477,1.57007 c 0.0263,0.86355 0.13706,2.06658 0.24628,2.67343 0.14392,0.79951 0.0919,1.17172 -0.18878,1.3516 -0.85857,0.55022 -1.00945,0.22986 -1.18986,-2.52632 z m 151.76334,-36.41612 c -1.39674,-0.52164 -4.50766,-1.86078 -6.91316,-2.97586 -2.40549,-1.11508 -4.74246,-2.19809 -5.19325,-2.40668 -0.45079,-0.2086 -2.8345,-1.37787 -5.29712,-2.59837 -5.39393,-2.67332 -6.66566,-3.1936 -9.17027,-3.75172 -5.23437,-1.16642 -8.65638,-1.1846 -12.86631,-0.0684 -1.51692,0.40219 -3.54854,0.81677 -4.51472,0.92127 -0.96617,0.1045 -2.45504,0.3777 -3.30861,0.60711 -3.95648,1.06334 -4.82344,1.20825 -7.28603,1.21777 -1.9829,0.007 -2.73726,0.11845 -3.06513,0.45016 -0.35983,0.36403 -1.23688,0.43346 -5.0802,0.40216 -2.5549,-0.0208 -4.72395,0.0418 -4.8201,0.13904 -0.26844,0.27158 -14.27877,0.15847 -16.84364,-0.13598 -1.24717,-0.14319 -3.61755,-0.38835 -5.26749,-0.54482 -3.0645,-0.29062 -4.94676,-0.65885 -6.77979,-1.32634 -1.22531,-0.44619 -5.38482,-1.54619 -6.58616,-1.74174 -1.28456,-0.20909 -6.09565,-2.07884 -7.05424,-2.74153 -2.59885,-1.7966 -3.76288,-3.08145 -4.90518,-5.41432 -1.43279,-2.92614 -1.51216,-4.56749 -0.42868,-8.86477 1.05153,-4.17056 0.88768,-6.59404 -0.66936,-9.90039 -0.64225,-1.36381 -1.59659,-2.86404 -2.17913,-3.42562 l -1.03644,-0.99914 -1.22092,1.35598 c -0.6715,0.74578 -1.42648,1.35597 -1.67774,1.35597 -0.84236,0 -0.82706,-0.85985 0.032,-1.80298 1.74923,-1.92025 1.83402,-1.56989 -1.22137,-5.04711 -2.38905,-2.71892 -2.86038,-3.42467 -3.37424,-5.05258 -0.69393,-2.19835 -0.53589,-3.24278 0.94818,-6.26646 0.96987,-1.97603 1.11735,-2.56522 1.33834,-5.34696 0.0858,-1.07978 0.2044,-2.04324 0.2636,-2.14101 0.0592,-0.0978 0.18438,-0.6683 0.27816,-1.26784 0.0938,-0.59954 0.35376,-2.0126 0.57771,-3.14015 0.7631,-3.84209 0.81386,-6.34724 0.19775,-9.75772 -0.63406,-3.50989 -1.78762,-8.07716 -2.43747,-9.65065 -0.23534,-0.56984 -0.42789,-1.50703 -0.42789,-2.08263 0,-0.5756 -0.14731,-1.54397 -0.32735,-2.15192 -0.55712,-1.88122 0.13239,-5.49608 1.47123,-7.71316 1.14534,-1.89667 1.55036,-2.70438 2.76848,-5.52112 1.11371,-2.57532 3.9918,-7.71279 5.70969,-10.19199 0.83801,-1.20938 1.85738,-2.69854 2.26526,-3.30923 0.40788,-0.6107 1.33529,-1.48388 2.0609,-1.94041 0.72562,-0.45653 1.94993,-1.25148 2.72069,-1.76654 2.33274,-1.55886 6.92672,-4.00959 9.2325,-4.92523 3.60063,-1.42982 5.13146,-2.5044 6.08652,-4.27253 0.77794,-1.44018 0.83196,-1.73773 0.79034,-4.35268 -0.0469,-2.9467 0.2761,-4.26725 1.28578,-5.25674 0.29442,-0.28852 2.08182,-1.93254 3.97201,-3.65338 1.89018,-1.72082 4.09472,-3.95951 4.89896,-4.97485 1.60382,-2.02478 3.90517,-5.40904 3.90517,-5.74274 0,-0.44206 2.79066,-4.46467 3.70175,-5.33589 0.52473,-0.50178 1.71592,-1.26158 2.64708,-1.68845 0.93116,-0.42687 1.76141,-0.87919 1.84499,-1.00515 0.32679,-0.4925 5.37562,-2.64374 9.42069,-4.01405 3.45082,-1.169 4.39016,-1.60461 4.97691,-2.30799 0.87165,-1.04493 2.22612,-1.13485 3.3481,-0.22227 2.13728,1.73838 1.62416,1.64687 7.28598,1.29945 2.76805,-0.16985 3.73876,-0.14388 3.73876,0.10002 0,0.18414 0.42179,0.32944 0.95632,0.32944 0.60357,0 1.96842,0.53733 3.70024,1.45677 1.96429,1.04284 3.35617,1.56724 4.89871,1.84558 2.36659,0.42704 9.06793,0.55153 9.06793,0.16845 0,-0.13215 0.53965,-0.40358 1.19923,-0.60316 1.52771,-0.46228 2.57621,-1.21098 4.14457,-2.95948 0.68878,-0.7679 1.74165,-1.70869 2.33972,-2.09064 l 1.08739,-0.69447 -0.57616,-0.74104 c -0.31689,-0.40756 -0.57617,-0.90569 -0.57617,-1.10694 0,-0.20126 -0.11754,-0.40874 -0.26122,-0.46107 -0.50331,-0.18335 -3.10182,-5.79329 -2.81788,-6.08357 0.44466,-0.45462 1.18174,0.19889 1.95042,1.72928 0.38799,0.77245 0.9213,1.6466 1.18516,1.94257 0.26385,0.29596 0.67606,0.93827 0.91602,1.42733 0.23997,0.48908 0.68454,1.18479 0.98797,1.54603 0.52603,0.6263 0.59139,0.63602 1.40711,0.20926 0.84341,-0.44124 4.9149,-1.49057 9.0479,-2.33187 1.16395,-0.23693 4.40185,-0.49939 7.19533,-0.58324 4.78483,-0.14362 5.15261,-0.11691 6.34882,0.46109 3.14659,1.52041 3.4966,1.90545 4.55745,5.01357 0.86318,2.52899 1.56366,3.72225 2.41562,4.11497 1.03688,0.47796 3.9698,0.36845 6.99434,-0.26114 1.5085,-0.31402 3.08429,-0.57094 3.50174,-0.57094 0.41746,0 0.91781,-0.16058 1.11188,-0.35684 0.26307,-0.26603 2.23413,-0.3629 7.74556,-0.38066 7.77051,-0.025 8.30722,-0.10476 9.83883,-1.46125 0.72837,-0.64509 3.63964,-1.96803 4.89277,-2.22338 2.69421,-0.54898 5.67165,-0.54561 7.22311,0.008 1.66725,0.59511 4.53139,2.74589 5.3678,4.03084 1.33923,2.05745 2.10842,3.3795 3.06246,5.2637 l 0.95352,1.88318 -0.54501,0.94333 c -0.9886,1.71107 -4.42548,3.22738 -8.80843,3.88614 -1.82059,0.27363 -3.29634,0.65581 -3.72515,0.96473 -0.92927,0.66943 -2.82613,3.92815 -2.8226,4.8491 0.007,1.92268 2.72118,5.80668 4.73161,6.77184 1.17731,0.56521 1.49233,0.60393 6.69351,0.82279 4.56726,0.1922 5.4992,0.37933 10.01703,2.01134 2.83018,1.02238 3.12694,1.071 6.63098,1.08639 3.75067,0.0164 5.37779,-0.22343 9.79013,-1.44339 1.34954,-0.37314 2.77052,-0.67843 3.15775,-0.67843 0.38723,0 0.77177,-0.11084 0.85453,-0.24631 0.0827,-0.13547 0.75688,-0.40165 1.49804,-0.59151 0.74117,-0.18986 1.98348,-0.53081 2.76069,-0.75767 2.94824,-0.86055 6.99185,-0.42448 9.26953,0.99966 0.51318,0.32087 2.29876,0.80809 4.15956,1.13498 6.14717,1.07992 10.7438,3.38532 11.62784,5.83185 0.73322,2.02915 0.78358,2.37685 0.46651,3.22059 -0.17486,0.46529 -0.30246,2.69405 -0.29614,5.17311 0.0104,4.09428 -0.034,4.46284 -0.74118,6.14281 -0.88006,2.09075 -3.0998,6.45019 -3.59907,7.06838 -0.87856,1.08774 -2.19037,4.00279 -2.44085,5.42389 -1.06154,6.02283 -1.12707,6.8786 -0.65376,8.53793 0.59169,2.07431 2.04374,4.82947 2.74555,5.20946 1.66518,0.9016 7.20917,5.40701 8.72654,7.09179 0.77774,0.86354 2.26269,2.4693 3.29985,3.56835 1.97126,2.08887 3.97433,4.72098 3.97433,5.22241 0,0.16113 0.38082,1.10737 0.84629,2.10277 1.46502,3.133 1.04715,5.7513 -1.1773,7.37682 -0.67151,0.49071 -2.71888,2.26502 -4.54969,3.9429 -1.83084,1.67788 -3.7297,3.27342 -4.21966,3.54565 -0.48999,0.27223 -1.88032,1.60371 -3.08967,2.95884 -4.64121,5.20075 -5.56824,7.6031 -5.11399,13.25257 0.27424,3.41069 0.17015,4.35126 -0.91548,8.2721 -0.63061,2.27745 -1.45253,3.65389 -3.44274,5.76542 -1.56581,1.66126 -4.8198,3.98125 -8.52992,6.08156 -2.62063,1.48356 -4.95653,3.04165 -5.5023,3.67015 -0.31039,0.35744 -1.19663,1.15517 -1.96942,1.77273 -3.25073,2.59777 -4.3794,4.22767 -4.3794,6.32428 0,0.38792 -0.22222,1.09471 -0.49381,1.57065 l -0.49379,0.86535 -6.16064,-0.17681 c -3.38834,-0.0972 -6.28507,-0.25461 -6.43716,-0.34971 -0.15209,-0.0951 -2.52235,-0.35231 -5.26725,-0.57159 -2.74488,-0.21927 -6.26047,-0.58927 -7.8124,-0.82221 -2.60227,-0.3906 -8.29243,-1.13167 -11.49842,-1.49752 -0.73717,-0.0841 -1.34031,-0.26506 -1.34031,-0.4021 0,-0.13703 -2.22208,-0.24914 -4.93797,-0.24914 -5.55571,0 -5.40651,-0.0724 -4.41307,2.14101 0.28189,0.62802 0.53569,1.84841 0.56401,2.71195 0.0283,0.86354 0.23089,2.25622 0.45015,3.09484 0.21925,0.83863 0.33377,1.69581 0.25448,1.90484 -0.18989,0.50065 -0.97651,0.79404 -1.28693,0.47999 -0.21528,-0.21779 -1.09615,-9.15805 -0.97587,-9.90443 0.0253,-0.15701 -0.27144,-0.24525 -0.65942,-0.19608 -0.38799,0.0491 -2.10217,0.1988 -3.80929,0.33253 -1.70713,0.13373 -3.80224,0.38644 -4.6558,0.56158 -0.85357,0.17515 -2.37729,0.43983 -3.38604,0.58819 -2.95027,0.43393 -5.89541,1.56373 -8.90248,3.41515 -5.33635,3.28553 -7.18121,5.49828 -7.18121,8.61327 0,1.27258 -0.12401,1.69079 -0.64952,2.19025 -1.0953,1.04101 -3.15712,1.51888 -7.11014,1.64793 -3.5943,0.11734 -3.71938,0.10065 -6.20774,-0.82869 z m 10.2992,-0.72042 c 0,-0.13188 0.50791,-0.40935 1.12868,-0.61663 1.11957,-0.3738 1.1287,-0.38858 1.13144,-1.82987 0.005,-2.78475 2.14416,-5.85825 5.64064,-8.10541 0.85356,-0.54858 2.08792,-1.35844 2.743,-1.79968 3.67415,-2.47474 9.95008,-3.96634 19.26624,-4.57902 4.96099,-0.32624 12.61441,-0.15436 14.61099,0.32815 0.66437,0.16055 1.93413,0.33795 2.82171,0.39421 2.77107,0.17567 9.09126,1.12974 9.09126,1.37238 0,0.12721 1.33326,0.2313 2.96278,0.2313 1.78708,0 2.96279,0.11329 2.96279,0.28547 0,0.17013 1.07484,0.28547 2.66019,0.28547 1.46311,0 3.58997,0.12578 4.72635,0.27952 2.59308,0.35082 8.38759,0.53791 9.74518,0.31466 0.98605,-0.16215 1.03821,-0.23104 1.40193,-1.85127 0.20779,-0.92557 0.63312,-2.10083 0.94521,-2.6117 0.74535,-1.2201 4.86562,-5.04247 6.85984,-6.36387 0.86601,-0.57384 1.99209,-1.32047 2.50239,-1.65918 0.51031,-0.33872 1.68969,-1.02957 2.62084,-1.53524 3.03237,-1.64673 6.17464,-3.90108 7.80909,-5.60246 1.58179,-1.64655 3.05445,-4.02389 3.05445,-4.93084 0,-0.25682 0.26756,-1.23326 0.59458,-2.16986 0.54531,-1.56177 0.57885,-2.06965 0.40459,-6.12767 -0.17386,-4.04884 -0.1383,-4.59243 0.4186,-6.39836 0.33473,-1.08547 0.90774,-2.45299 1.27336,-3.03894 1.78697,-2.86381 5.48144,-6.84473 8.19713,-8.83267 1.35151,-0.98932 5.6102,-4.75924 7.93892,-7.02777 1.04081,-1.01392 1.20687,-1.33883 1.20687,-2.36138 0,-0.70741 -0.34146,-1.9476 -0.84651,-3.07447 -0.46559,-1.03881 -0.84651,-2.00802 -0.84651,-2.15379 0,-0.35312 -1.23901,-2.03782 -2.79125,-3.79528 -2.15187,-2.43638 -5.68938,-6.13757 -5.86613,-6.13757 -0.0926,0 -0.96384,-0.70654 -1.93606,-1.57008 -0.97221,-0.86354 -1.84409,-1.57007 -1.93748,-1.57007 -0.0934,0 -1.06683,-0.73865 -2.16317,-1.64145 -1.6483,-1.3573 -2.16357,-1.99818 -2.97674,-3.70229 -1.38751,-2.90776 -1.69687,-4.8682 -1.2607,-7.98906 0.59391,-4.24937 1.21086,-6.19528 2.688,-8.47807 0.51775,-0.80014 1.48326,-2.48248 2.14555,-3.73854 0.66231,-1.25606 1.31085,-2.47644 1.44123,-2.71194 0.13036,-0.23552 0.49149,-1.10622 0.8025,-1.93492 0.56837,-1.51443 0.58491,-1.78828 0.67625,-11.20518 0.0141,-1.467 -0.11059,-2.04688 -0.58587,-2.72218 -1.215,-1.72624 -2.59994,-1.94179 -3.3322,-0.51865 -0.54262,1.0546 -2.96064,4.60501 -3.37079,4.94939 -0.22758,0.19108 -0.54632,0.26455 -0.70832,0.16326 -0.58971,-0.36872 -0.26736,-1.27791 0.97524,-2.75067 0.69837,-0.82772 1.26976,-1.62261 1.26976,-1.7664 0,-0.1438 0.38411,-0.7521 0.85358,-1.35178 0.46946,-0.59967 0.74193,-1.16012 0.60547,-1.24543 -0.62494,-0.39076 -4.27947,-1.60168 -5.28142,-1.74999 -3.40114,-0.50346 -4.70704,-0.84242 -6.65342,-1.727 -2.88741,-1.31223 -5.32164,-1.35023 -9.24482,-0.14434 -5.3511,1.64481 -10.86126,2.96062 -13.99868,3.34286 -2.24711,0.27377 -4.31515,0.17023 -7.05425,-0.3532 -1.95689,-0.37396 -3.25149,-0.79815 -6.63099,-2.17271 -0.38798,-0.1578 -2.991,-0.39589 -5.78448,-0.5291 -2.79348,-0.13319 -5.49624,-0.36811 -6.00612,-0.52205 -2.74119,-0.82753 -5.01962,-3.3012 -6.39392,-6.94182 -0.63304,-1.67696 -0.30677,-2.93846 1.35104,-5.22372 2.05761,-2.83635 2.23935,-2.94627 5.41981,-3.27783 3.09422,-0.32258 4.1055,-0.59124 6.17348,-1.64009 1.55298,-0.78765 1.93498,-1.11254 2.22812,-1.89501 0.188,-0.5018 0.029,-0.84846 -1.71689,-3.74469 -0.1893,-0.31402 -0.61293,-1.08478 -0.94139,-1.71281 -0.63028,-1.2051 -2.45244,-3.28289 -2.87899,-3.28289 -0.13853,0 -0.60233,-0.25244 -1.03064,-0.56099 -2.25462,-1.62421 -6.90926,-1.42171 -10.62698,0.46233 -1.1596,0.58766 -2.24552,1.23564 -2.41313,1.43997 -0.16762,0.20433 -0.48366,0.3715 -0.70232,0.3715 -0.21866,0 -0.47683,0.20898 -0.57371,0.4644 -0.15675,0.41327 -0.62952,0.441 -4.29423,0.25185 -2.26495,-0.1169 -5.06984,-0.18983 -6.23308,-0.16207 -2.54764,0.0608 -7.36479,0.71682 -8.08729,1.10139 -0.2861,0.15228 -2.04132,0.4978 -3.90049,0.76781 -5.18619,0.75321 -6.83296,0.33143 -8.13172,-2.08273 -0.41929,-0.77938 -0.76235,-1.55542 -0.76235,-1.72454 0,-0.16912 -0.26512,-1.02437 -0.58915,-1.90054 -0.63891,-1.72762 -1.30223,-2.50374 -2.72634,-3.18996 -0.50439,-0.24304 -0.91706,-0.55572 -0.91706,-0.69484 0,-0.13911 -2.22208,-0.25294 -4.93797,-0.25294 -2.71588,0 -4.93797,0.11001 -4.93797,0.24447 0,0.13447 -0.85709,0.32528 -1.90465,0.42403 -2.72674,0.25705 -8.74074,1.82912 -10.07848,2.63453 -0.62578,0.37677 -1.68293,1.20078 -2.34925,1.83115 -0.66632,0.63037 -1.29842,1.14612 -1.40467,1.14612 -0.10627,0 -0.66455,0.48173 -1.24065,1.07051 -1.92511,1.96748 -2.94114,2.64685 -4.53775,3.03416 -0.42678,0.10353 -0.77597,0.37848 -0.77597,0.61099 0,0.35394 -0.66611,0.42277 -4.09146,0.42277 -2.53953,0 -4.09146,-0.10828 -4.09146,-0.28547 0,-0.157 -0.47616,-0.28619 -1.05814,-0.28706 -1.60842,-0.002 -3.01408,-0.48106 -6.50392,-2.21468 l -3.18842,-1.58389 -5.08147,0.18622 -5.08146,0.18622 -0.90063,-0.86194 c -1.21725,-1.16494 -1.94881,-1.31467 -2.924,-0.59845 -0.83078,0.61015 -3.94403,1.85831 -8.59698,3.44667 -1.67452,0.57163 -3.0637,1.24636 -3.61508,1.75585 -0.49252,0.45511 -1.05365,0.82747 -1.24696,0.82747 -0.529,0 -3.88295,1.7616 -4.89637,2.57173 -1.08529,0.86757 -2.60567,2.86004 -3.42904,4.49379 -1.88311,3.73646 -5.35004,7.94869 -10.39086,12.62462 -3.93695,3.65197 -4.10077,3.96078 -4.16622,7.85336 -0.048,2.85669 -0.44177,4.05384 -1.87733,5.70796 -1.07071,1.23373 -3.75801,2.79286 -6.14145,3.56318 -0.97039,0.31363 -2.10497,0.80853 -2.52129,1.09978 -0.41632,0.29125 -1.39183,0.82751 -2.16779,1.19167 -0.77597,0.36417 -1.98224,1.06452 -2.68061,1.55633 -0.69837,0.49181 -1.84847,1.23367 -2.55576,1.64857 -1.60147,0.93943 -3.09756,2.56858 -5.0211,5.46764 -2.3264,3.50628 -4.46677,7.10434 -4.69209,7.88766 -0.11291,0.39253 -0.38591,1.00341 -0.60668,1.35754 -0.22075,0.35412 -0.75565,1.57465 -1.18866,2.71231 -0.43301,1.13764 -1.25146,2.68365 -1.81878,3.43557 -1.28346,1.70108 -1.7107,3.16786 -1.72189,5.91159 -0.0104,2.54838 0.4361,5.09382 1.39176,7.93402 0.38528,1.14505 1.09329,4.03542 1.57336,6.42303 0.84518,4.20353 0.86195,4.4316 0.52906,7.1958 -0.37059,3.07729 -1.25997,8.28563 -1.53837,9.00891 -0.0942,0.24468 -0.20036,1.40083 -0.23596,2.56921 -0.0546,1.79511 -0.2281,2.46369 -1.11893,4.3138 -1.53927,3.19679 -1.65248,4.02123 -0.83615,6.08914 0.37188,0.94204 0.95241,1.96972 1.29006,2.28374 0.33764,0.31402 1.29531,1.37807 2.12813,2.36458 2.31163,2.73817 2.20702,2.7335 4.94261,0.22091 2.21677,-2.03606 3.55383,-2.70357 3.55383,-1.77419 0,0.2107 -1.07931,1.43653 -2.39845,2.72406 -1.31915,1.28753 -2.39845,2.45524 -2.39845,2.59489 0,0.13965 0.36411,0.5162 0.80912,0.83679 1.74226,1.25509 3.75781,5.83402 3.84352,8.73168 0.0462,1.56245 -0.24517,4.12861 -0.69716,6.1396 -0.73292,3.26094 -0.83463,4.383 -0.51522,5.68401 0.59789,2.43532 2.57156,4.88457 5.42332,6.73014 1.47071,0.9518 6.06158,2.71418 7.53274,2.89173 1.29983,0.15687 3.37888,0.68253 4.39006,1.10997 0.54067,0.22854 2.04669,0.67111 3.3467,0.98347 2.31311,0.55578 3.01001,0.6482 7.61103,1.00937 1.24154,0.0975 2.58461,0.23991 2.98458,0.31655 0.39998,0.0767 2.17764,0.1911 3.95038,0.25435 8.52375,0.30408 21.41816,-0.0378 22.79787,-0.60434 0.52333,-0.21491 1.56301,-0.39075 2.31039,-0.39075 1.42771,0 4.16861,-0.5628 6.10225,-1.25301 0.62989,-0.22483 2.33597,-0.55494 3.7913,-0.73359 1.45533,-0.17865 3.91583,-0.6558 5.46776,-1.06035 2.77764,-0.72406 4.69256,-0.87435 7.19533,-0.56473 4.20414,0.52009 5.95538,0.80939 7.33641,1.21195 1.44523,0.42127 7.15305,3.0354 8.74727,4.00617 0.38798,0.23626 1.65774,0.88304 2.8217,1.43728 1.16395,0.55424 3.65227,1.75122 5.5296,2.65996 1.87734,0.90873 3.7185,1.73945 4.09146,1.84604 0.37298,0.10659 0.93209,0.31537 1.24247,0.46395 3.09154,1.47993 3.8771,1.64135 8.11239,1.66702 2.2891,0.0139 4.162,-0.0827 4.162,-0.21455 z m 30.49338,-21.41982 c -0.16566,-0.31317 -0.30121,-1.01674 -0.30121,-1.56351 0,-0.54676 -0.12251,-1.03693 -0.27224,-1.08927 -0.29034,-0.10148 -1.1498,-3.85134 -1.12202,-4.89541 0.0159,-0.59676 0.0311,-0.60023 0.35272,-0.0807 0.18487,0.29864 0.62007,0.802 0.96713,1.11858 0.34705,0.31659 0.7068,1.03571 0.79943,1.59805 0.0926,0.56233 0.35716,1.62843 0.58784,2.36911 0.23068,0.74068 0.37884,1.70304 0.32924,2.13857 -0.10958,0.96238 -0.91695,1.20597 -1.34089,0.40456 z m -3.81449,-11.80539 c -0.21933,-0.53106 -0.48905,-1.34382 -0.59939,-1.80614 -0.23024,-0.96478 -1.49547,-3.62388 -1.82753,-3.84088 -0.33094,-0.21627 -0.65045,-1.70995 -0.36577,-1.70995 0.61225,0 2.56605,2.34329 2.90278,3.48147 0.19995,0.67582 0.61372,1.76758 0.91948,2.42615 0.6334,1.36422 0.58605,2.17782 -0.13493,2.31829 -0.34128,0.0665 -0.62019,-0.20441 -0.89464,-0.86894 z m -6.04961,-11.23591 c -0.32737,-0.42105 -0.59522,-0.85919 -0.59522,-0.97366 0,-0.11446 -0.89118,-1.15694 -1.98039,-2.31662 -1.86674,-1.98749 -2.4442,-2.95298 -2.20337,-3.68391 0.12194,-0.37012 3.60165,2.97033 5.13597,4.93045 0.65786,0.84042 1.02775,1.59239 0.97195,1.97592 -0.13239,0.91016 -0.65334,0.93675 -1.32894,0.0678 z M 171.8516,535.37119 c 0.0902,-0.79306 0.56569,-1.19215 4.70747,-3.95112 1.49518,-0.99599 2.29498,-1.09785 2.29498,-0.29229 0,0.22736 -1.17453,1.21772 -2.61008,2.20078 -1.43554,0.98308 -2.77599,2.02147 -2.97878,2.30754 -0.20279,0.28607 -0.6239,0.52012 -0.9358,0.52012 -0.45216,0 -0.54898,-0.15908 -0.47779,-0.78503 z m 130.73391,-2.79348 c -3.10347,-2.34555 -4.57335,-4.12913 -3.4029,-4.12913 0.22351,0 1.23471,0.6423 2.24713,1.42734 1.0124,0.78504 1.94057,1.42926 2.06259,1.43159 0.51603,0.01 2.41924,1.91578 2.22712,2.23028 -0.38968,0.63789 -1.44901,0.31336 -3.13394,-0.96008 z m -120.06326,-4.26775 c 0,-0.58146 0.30799,-0.86685 1.70594,-1.58079 0.93826,-0.47916 1.77719,-1.05909 1.86429,-1.28871 0.0871,-0.22963 0.36698,-0.41904 0.62197,-0.42094 0.25498,-0.002 1.01621,-0.32304 1.69163,-0.71367 1.31126,-0.75837 2.99522,-0.97132 2.79463,-0.35339 -0.0637,0.19625 -0.99589,0.87067 -2.07151,1.4987 -1.07562,0.62804 -2.74129,1.68783 -3.70149,2.35512 -2.03444,1.41382 -2.90546,1.56481 -2.90546,0.50368 z m 111.72419,-3.08569 c -2.37296,-2.21713 -4.55522,-4.73237 -4.36955,-5.03629 0.30123,-0.4931 1.49815,0.33908 4.21768,2.93239 1.80338,1.71969 2.46369,2.52883 2.33676,2.86348 -0.27412,0.72269 -0.7906,0.54314 -2.18489,-0.75958 z m -99.30872,-3.48061 c 0,-0.85039 5.28231,-3.57194 6.93286,-3.57194 1.05394,0 1.38362,0.72845 0.4741,1.0476 -1.47056,0.51603 -5.06984,2.19497 -5.45398,2.54409 -0.60027,0.54555 -1.95298,0.53187 -1.95298,-0.0198 z m 13.33253,-4.33193 c -0.50217,-0.205 -0.43704,-1.14446 0.0936,-1.35047 0.24548,-0.0953 0.72165,-0.17407 1.05814,-0.17504 0.33649,-8.2e-4 0.99273,-0.20571 1.45831,-0.45498 1.29726,-0.69455 4.75701,-1.55334 5.05269,-1.25419 0.45685,0.46218 -0.38256,1.08885 -2.32289,1.73418 -1.03581,0.34449 -2.3544,0.86558 -2.93019,1.15795 -1.03425,0.52519 -1.72259,0.62304 -2.40968,0.34255 z m 79.7734,-1.86346 c -0.98729,-1.09016 -2.84387,-4.87951 -2.90869,-5.93671 -0.0903,-1.47255 0.80304,-0.71654 2.01715,1.70711 0.66804,1.33357 1.46164,2.69069 1.76356,3.01582 0.58763,0.63281 0.72997,1.69208 0.26633,1.98197 -0.15544,0.0972 -0.6677,-0.24849 -1.13835,-0.76819 z m 117.47227,-0.005 c -0.97439,-0.47593 -1.35475,-2.00919 -0.82853,-3.33973 0.33287,-0.84166 0.35485,-1.16797 0.0964,-1.42948 -0.18424,-0.18638 -0.35083,-0.71783 -0.37024,-1.181 -0.0661,-1.5775 -0.10592,-1.69854 -0.55926,-1.69854 -0.30686,0 -0.39523,-0.15344 -0.27339,-0.47468 0.19799,-0.52199 -1.09262,-2.09453 -1.71901,-2.09453 -0.44876,0 -0.77225,-1.18451 -0.53231,-1.94929 0.24717,-0.78789 1.61776,-1.10618 1.98986,-0.46212 0.15558,0.26929 0.55313,0.82567 0.88347,1.23641 0.33034,0.41074 0.64854,1.00372 0.70709,1.31773 0.0586,0.31402 0.39143,0.69775 0.73968,0.85274 0.73302,0.32618 0.77797,0.64249 0.20102,1.4142 -0.22785,0.30478 -0.41428,0.78329 -0.41428,1.06337 0,0.41357 0.15903,0.47706 0.84651,0.33796 0.65454,-0.13244 0.8465,-0.0691 0.8465,0.27932 0,0.24782 0.5714,1.02049 1.26977,1.71702 1.53712,1.53309 1.62115,2.33195 0.39402,3.74591 -0.93271,1.07472 -1.99624,1.29043 -3.27729,0.66471 z m -185.19284,-1.52328 c -0.47814,-0.58286 -0.17357,-0.85379 1.71084,-1.52186 4.31986,-1.53151 5.23407,-1.91374 5.69666,-2.38172 0.63302,-0.64043 0.71659,-0.63636 1.89784,0.0922 0.90491,0.5581 0.93388,0.61987 0.42326,0.90231 -0.30148,0.16675 -0.61164,0.38219 -0.68924,0.47874 -0.0776,0.0965 -1.34736,0.46651 -2.8217,0.82214 -1.47433,0.35563 -3.29229,0.96204 -4.0399,1.34756 -1.59903,0.8246 -1.70476,0.83725 -2.17776,0.26066 z m 12.75849,-4.19856 c 0.0735,-0.52372 0.35062,-0.69172 1.50102,-0.91003 0.77596,-0.14726 1.47433,-0.35524 1.55193,-0.46218 0.0776,-0.10693 1.11537,-0.28552 2.30618,-0.39686 2.01685,-0.18857 2.18679,-0.1614 2.48203,0.3967 0.45304,0.85642 0.1426,1.15686 -1.2072,1.1683 -0.65041,0.006 -2.00791,0.1937 -3.01667,0.41817 -1.00876,0.22449 -2.25561,0.41267 -2.77078,0.41818 -0.81226,0.009 -0.9247,-0.0753 -0.84651,-0.63228 z m -6.4082,-1.69204 c -0.16225,-0.97165 -0.10461,-1.26239 0.31131,-1.57007 0.6686,-0.4946 0.75859,-0.48282 1.63428,0.21405 1.35674,1.07968 0.75315,2.54849 -1.04727,2.54849 -0.60075,0 -0.72721,-0.16786 -0.89832,-1.19247 z m 20.27836,-0.96772 c -0.0933,-0.24607 -0.0425,-0.57601 0.11281,-0.73319 0.31187,-0.31553 2.57584,-0.72734 5.50637,-1.00162 1.65689,-0.15508 1.90464,-0.11666 1.90464,0.29536 0,0.59672 -1.09849,1.02916 -2.62844,1.03474 -0.64946,0.002 -1.68875,0.18941 -2.30953,0.41566 -1.48825,0.54243 -2.37738,0.53866 -2.58585,-0.0109 z m 35.64752,-0.62312 c -0.20292,-0.3432 -1.06063,-3.75401 -1.48114,-5.89005 -0.47349,-2.40512 -0.13336,-3.51985 0.56255,-1.84361 0.23849,0.57447 0.55836,1.60215 0.71082,2.28375 0.15246,0.68159 0.53652,1.99802 0.85347,2.92539 0.72919,2.1336 0.73551,2.73863 0.0285,2.73863 -0.30123,0 -0.60466,-0.0963 -0.67428,-0.21411 z m -56.05851,-1.58652 c 0,-0.77658 0.13757,-1.05975 0.58456,-1.20329 0.53345,-0.17129 1.68061,0.5015 1.66849,0.97851 -0.0122,0.47926 -0.54172,0.89409 -1.35002,1.05765 -0.88055,0.17817 -0.90303,0.15744 -0.90303,-0.83287 z m 33.62099,0.69154 c -0.20926,-0.13417 -0.33482,-0.48546 -0.27902,-0.78067 0.0921,-0.48718 0.47242,-0.5499 4.11977,-0.67946 3.10196,-0.11018 4.0182,-0.0614 4.01778,0.2141 -2.8e-4,0.19892 -0.34433,0.35684 -0.77742,0.35684 -0.42727,0 -1.66489,0.25691 -2.75025,0.57093 -2.08676,0.60374 -3.70062,0.72233 -4.33086,0.31826 z m 10.69279,-1.87235 c -0.60086,-0.73246 0.0511,-1.13744 1.89813,-1.17916 2.09682,-0.0474 3.87177,-0.36537 4.81335,-0.86238 1.00575,-0.53086 2.00065,-0.50566 2.21373,0.0561 0.22247,0.58655 -0.15417,0.80831 -2.11851,1.24731 -0.87982,0.19663 -1.72665,0.45884 -1.88184,0.58269 -0.1552,0.12385 -1.24033,0.31488 -2.41141,0.42451 -1.79018,0.16758 -2.19041,0.12474 -2.51345,-0.26906 z m 128.65632,-1.30059 c 0,-0.15701 -0.19047,-0.28547 -0.42325,-0.28547 -0.63199,0 -0.51548,-0.45751 0.37256,-1.46302 0.78808,-0.89233 0.80317,-0.89622 1.55194,-0.39988 0.8271,0.54827 0.94246,1.16243 0.36333,1.93427 -0.39716,0.52929 -1.86458,0.69779 -1.86458,0.2141 z M 225.3739,501.70931 c -0.25377,-0.0683 -0.54173,-0.53051 -0.63989,-1.02706 -0.0982,-0.49656 -0.51742,-1.26074 -0.93169,-1.69819 -0.41426,-0.43745 -0.61605,-0.79536 -0.44843,-0.79536 0.52797,0 0.66454,-0.87978 0.20825,-1.3414 -0.73865,-0.74728 -0.40391,-1.64261 0.65264,-1.74562 1.05656,-0.10301 1.49517,0.5406 0.95965,1.40815 -0.43286,0.70121 -0.42414,0.7301 0.27618,0.91538 0.50488,0.13357 0.57453,0.30286 0.42851,1.04151 -0.1494,0.75574 -0.0741,0.92059 0.5258,1.15134 0.83027,0.31936 0.9139,1.14114 0.18415,1.80928 -0.28381,0.25984 -0.5695,0.45754 -0.63489,0.43933 -0.0654,-0.0182 -0.3265,-0.089 -0.58028,-0.15736 z m 61.24367,-0.26862 c -0.31857,-0.38834 -0.30144,-0.5147 0.11121,-0.81997 0.61872,-0.4577 5.75339,-0.83948 6.67018,-0.49594 0.65903,0.24695 0.63418,0.27897 -0.56434,0.72729 -1.15238,0.43105 -4.28866,1.04042 -5.38119,1.04556 -0.25259,8.1e-4 -0.62872,-0.20444 -0.83586,-0.45694 z m 11.59681,-1.04731 c -0.38661,-0.19991 -0.74511,-0.58506 -0.79666,-0.85588 -0.0814,-0.42748 0.1601,-0.49222 1.83161,-0.49098 1.09048,8.1e-4 2.49649,-0.20569 3.24255,-0.4762 1.04419,-0.37861 1.51209,-0.4139 2.25736,-0.17023 0.87778,0.28698 0.89803,0.32077 0.30525,0.50948 -0.34918,0.11117 -0.63487,0.29918 -0.63487,0.4178 0,0.11863 -0.53336,0.30198 -1.18523,0.40744 -0.65187,0.10546 -1.31849,0.29836 -1.48139,0.42867 -0.57355,0.45885 -2.81433,0.60443 -3.53862,0.2299 z m 99.5329,-0.11772 c -0.70966,-0.18762 -0.60991,-0.72573 0.29761,-1.60535 1.02129,-0.9899 1.37759,-0.96754 1.60958,0.10101 0.29828,1.37396 -0.37918,1.90832 -1.90719,1.50434 z m -87.91685,-2.10636 c -0.40952,-0.16445 -0.62006,-0.45121 -0.56061,-0.76356 0.0714,-0.37508 0.49199,-0.55033 1.68144,-0.70065 0.87242,-0.11025 2.58493,-0.45357 3.80556,-0.76294 1.85935,-0.47125 2.28282,-0.50032 2.61065,-0.17925 0.61265,0.60005 0.1633,1.23556 -1.01135,1.43037 -1.05774,0.17541 -4.62227,0.91437 -5.4466,1.12912 -0.23279,0.0607 -0.71838,-0.008 -1.07909,-0.15309 z m 86.29355,-0.83818 c -0.67053,-0.95267 -0.59505,-1.02857 1.20004,-1.20659 0.9358,-0.0928 1.05814,-0.0317 1.05814,0.52806 0,1.74382 -1.24509,2.11792 -2.25818,0.67853 z m -73.46561,-1.47841 c -0.25413,-0.14388 -0.46206,-0.50969 -0.46206,-0.81291 0,-0.62193 0.1839,-0.67753 3.66821,-1.10927 1.31915,-0.16346 2.68414,-0.37914 3.03332,-0.47929 0.48574,-0.13931 0.63489,-0.0643 0.63489,0.3193 0,0.72128 -0.83418,1.2581 -1.97519,1.27111 -0.54317,0.007 -1.76374,0.25007 -2.71236,0.54196 -1.14359,0.35187 -1.88046,0.44255 -2.18681,0.2691 z m 71.66037,-0.26192 c -0.52382,-0.41685 -0.70164,-0.7649 -0.58338,-1.14187 0.13453,-0.42884 0.0299,-0.54225 -0.50039,-0.54225 -1.66778,0 -2.18869,-1.62377 -0.65411,-2.03896 1.0411,-0.28167 1.56876,0.12784 1.56876,1.21751 0,0.6785 0.11874,0.82145 0.68234,0.82145 1.57386,0 2.08412,0.87274 1.05899,1.8113 -0.65041,0.59549 -0.66565,0.59427 -1.57221,-0.12718 z m -114.00713,-0.32814 c -0.35197,-1.18651 -0.76756,-4.16158 -0.91716,-6.56577 -0.15113,-2.42864 -0.11596,-2.78332 0.27603,-2.78332 0.65469,0 0.70849,0.17332 1.16167,3.74214 0.22711,1.7885 0.54554,3.69145 0.70764,4.22875 0.20983,0.69554 0.20514,1.08609 -0.0163,1.35597 -0.39247,0.47844 -1.07289,0.49092 -1.21193,0.0222 z m -57.66481,-1.69854 c -0.44308,-0.44826 -0.43451,-1.35827 0.0141,-1.4981 1.60099,-0.49898 1.89078,-0.45565 2.08101,0.31117 0.2942,1.18588 -1.23811,2.05396 -2.09512,1.18693 z m 111.47118,-0.4077 c -0.67446,-0.29395 -0.39258,-1.22859 0.42326,-1.40343 0.42678,-0.0915 1.28387,-0.35949 1.90465,-0.59563 2.27156,-0.8641 5.07407,-1.50919 5.34884,-1.23121 0.47426,0.4798 -0.4431,1.05882 -3.37365,2.12937 -3.17947,1.16148 -3.79989,1.32021 -4.3031,1.1009 z m 56.28439,-1.42313 c -0.11172,-0.11303 -0.20313,-0.71169 -0.20313,-1.33034 0,-0.8569 -0.0959,-1.08761 -0.40258,-0.96855 -0.22142,0.086 -0.72833,0.003 -1.12648,-0.18356 -0.90778,-0.42618 -0.95764,-1.42957 -0.10118,-2.03648 1.04609,-0.74127 1.57775,-0.55987 1.89924,0.64801 0.1786,0.67107 0.55541,1.23569 0.97695,1.46393 0.71052,0.38471 1.21395,1.63944 0.8154,2.03226 -0.35149,0.34644 -1.63113,0.60448 -1.85822,0.37473 z m -167.741,-0.59929 c -0.6798,-0.13028 -1.10452,-1.17552 -0.80186,-1.97344 0.13639,-0.35956 0.41041,-0.42696 1.2053,-0.29647 1.45111,0.23824 1.72581,0.60324 1.16177,1.54371 -0.50812,0.84722 -0.63255,0.90494 -1.56521,0.7262 z m 123.80154,-2.86933 c 0,-0.77245 0.39903,-1.02537 2.53953,-1.60968 1.00876,-0.27537 2.80183,-0.81176 3.98458,-1.19198 2.56955,-0.82603 3.43071,-0.88401 3.30198,-0.22234 -0.0502,0.25794 -0.28169,0.56028 -0.51448,0.67187 -1.51121,0.72442 -2.53964,1.12726 -3.52713,1.38158 -0.62077,0.15986 -1.82705,0.50497 -2.68061,0.76689 -2.67864,0.82196 -3.10387,0.84986 -3.10387,0.20366 z m -125.40906,-0.44885 c -0.5241,-0.38772 -0.52693,-0.43884 -0.0638,-1.15397 0.5242,-0.80937 0.57377,-0.82748 1.54488,-0.56435 0.52954,0.14349 0.63413,0.34118 0.56434,1.06661 -0.0682,0.70882 -0.22963,0.9075 -0.79135,0.97395 -0.38813,0.0459 -0.95247,-0.0991 -1.25409,-0.32224 z m 165.68881,-0.67169 c -0.29918,-0.0791 -0.49381,-0.40358 -0.49381,-0.82328 0,-0.48738 -0.15705,-0.69275 -0.52978,-0.69275 -0.83028,0 -1.21925,-0.69223 -1.01324,-1.80318 0.17451,-0.9411 0.13348,-1.00679 -0.82971,-1.32839 -0.55731,-0.18608 -1.0133,-0.46527 -1.0133,-0.62042 0,-0.54301 0.58764,-1.38644 0.96598,-1.38644 0.51383,0 2.8741,2.38179 3.42148,3.45268 0.24142,0.4723 0.62276,0.93009 0.84744,1.01732 0.22468,0.0872 0.4085,0.37317 0.4085,0.63546 0,0.53381 -0.77148,1.7639 -1.07414,1.71267 -0.1076,-0.0182 -0.41783,-0.0919 -0.68942,-0.16367 z m -166.22154,-2.56275 c -0.31578,-0.31947 -0.2096,-1.18058 0.1646,-1.33487 0.23921,-0.0986 0.13885,-0.32067 -0.31189,-0.69 -0.84394,-0.69152 -0.70092,-1.54062 0.32072,-1.90411 0.64464,-0.22935 0.88398,-0.1714 1.38489,0.33537 0.51135,0.51733 0.54786,0.68299 0.23466,1.06479 -0.31382,0.38255 -0.26981,0.561 0.28597,1.15951 0.6439,0.69341 0.64611,0.71562 0.11195,1.12443 -0.56499,0.43241 -1.86222,0.57741 -2.1909,0.24488 z m 139.67406,-0.57093 c -0.55976,-0.5663 -0.0451,-1.22013 1.73975,-2.20992 1.06032,-0.58802 2.36184,-1.44437 2.89224,-1.903 1.08772,-0.9405 1.95417,-1.08982 1.94765,-0.33563 -0.007,0.77527 -0.23986,0.99611 -3.03821,2.87769 -2.53344,1.70347 -3.14307,1.97388 -3.54143,1.57086 z m -81.57206,-2.42917 c -0.0645,-0.20786 -0.19242,-1.59831 -0.2842,-3.08988 -0.0918,-1.49158 -0.24488,-3.62581 -0.34023,-4.74275 -0.12767,-1.4954 -0.0784,-2.09018 0.18677,-2.256 0.93569,-0.58504 1.4796,2.06719 1.52183,7.42074 0.0197,2.49755 -0.0385,2.86062 -0.47219,2.94714 -0.27206,0.0543 -0.54745,-0.0714 -0.61198,-0.27925 z m -59.08231,-2.59031 c 0.0784,-1.09566 0.16439,-1.22223 0.88769,-1.30601 0.47479,-0.055 1.02149,0.10919 1.3426,0.40317 0.5066,0.46384 0.51129,0.5299 0.0724,1.02054 -0.2581,0.28853 -0.70355,0.5246 -0.98988,0.5246 -0.28634,0 -0.5206,0.12846 -0.5206,0.28547 0,0.15701 -0.19777,0.28547 -0.43949,0.28547 -0.34253,0 -0.42034,-0.26764 -0.35271,-1.21324 z m 161.77568,0.0892 c -0.47003,-1.49821 1.79412,-2.46039 2.43599,-1.0352 0.49171,1.09182 0.13413,1.58828 -1.14396,1.58828 -0.85866,0 -1.15882,-0.12849 -1.29203,-0.55308 z m -12.17795,-1.017 c -0.27042,-0.71291 0.0663,-1.16332 1.49574,-2.00072 0.75075,-0.43981 1.85302,-1.18543 2.44948,-1.65694 0.88004,-0.69567 1.13184,-0.78151 1.33573,-0.45535 0.40221,0.64347 0.21416,0.87517 -2.23767,2.75704 -2.46604,1.89278 -2.78565,2.03519 -3.04328,1.35597 z m 11.02149,-1.70055 c -0.0957,-0.38578 -0.11971,-0.86621 -0.0534,-1.06761 0.0664,-0.2014 -0.1752,-0.60162 -0.53678,-0.88937 -0.3616,-0.28775 -0.65745,-0.70974 -0.65745,-0.93774 0,-0.228 -0.31744,-0.53665 -0.70542,-0.68588 -0.96647,-0.37175 -0.88445,-0.94811 0.21162,-1.48705 0.50438,-0.248 2.15353,-1.49217 3.66478,-2.76482 1.51125,-1.27265 2.87624,-2.3139 3.03333,-2.3139 0.82301,0 0.0401,1.2372 -2.02945,3.20703 -2.1861,2.08076 -2.28854,2.23092 -1.77911,2.60777 0.48065,0.35557 0.50394,0.52051 0.21024,1.48867 -0.18166,0.59884 -0.30268,1.09534 -0.26892,1.10333 0.0337,0.008 0.31533,0.15674 0.62571,0.33058 1.20165,0.67299 0.70132,2.1104 -0.73459,2.1104 -0.62128,0 -0.84657,-0.16115 -0.98061,-0.70141 z m -160.9557,-1.27762 c 0,-0.57294 -0.16989,-0.89172 -0.53827,-1.01001 -0.64924,-0.20846 -0.94719,-0.89092 -0.71378,-1.63493 0.25316,-0.80696 1.92388,-0.61014 2.04378,0.24077 0.0475,0.33688 0.33316,0.83852 0.63488,1.11475 0.68444,0.62666 0.69277,1.04967 0.0325,1.65414 -0.82942,0.7594 -1.45916,0.60199 -1.45916,-0.36472 z m -1.3403,-4.8811 c -0.81458,-0.33124 -0.8185,-1.25596 -0.008,-1.83045 0.83225,-0.58974 0.97404,-0.56614 1.50271,0.25014 0.3499,0.54025 0.38048,0.82558 0.13766,1.2846 -0.33773,0.63842 -0.65052,0.69508 -1.63261,0.29571 z m -1.87446,-3.01187 c -0.3654,-0.96333 -0.18772,-1.83219 0.37469,-1.83219 1.13654,0 1.99356,0.53608 1.99356,1.247 0,1.03494 -2.00934,1.53144 -2.36825,0.58519 z m 61.22138,-0.55565 c -0.25709,-0.39695 -0.40219,-0.82852 -0.32246,-0.95905 0.13378,-0.21898 -0.0761,-2.55273 -0.56139,-6.24095 -0.15557,-1.18246 -0.11473,-1.49871 0.19355,-1.49871 0.2149,0 0.53995,0.35326 0.72233,0.78504 0.44939,1.06387 1.51046,7.70257 1.31393,8.2207 -0.2392,0.63063 -0.82528,0.49693 -1.34596,-0.30703 z m -62.23917,-2.93875 c 0,-1.15501 0.56872,-1.56709 1.73925,-1.26023 0.79794,0.20919 0.94136,0.37451 0.94136,1.08505 0,0.7975 -0.0651,0.84248 -1.3403,0.92526 -1.3138,0.0853 -1.34031,0.0705 -1.34031,-0.75008 z m 173.94186,-0.5166 c 0.19037,-0.76736 3.87801,-5.09326 4.57117,-5.36237 0.85047,-0.33017 0.29978,0.96914 -1.32644,3.12962 -1.82228,2.42094 -2.39443,2.98422 -3.03125,2.98422 -0.29104,0 -0.34916,-0.20458 -0.21348,-0.75147 z M 214.46601,460.835 c -0.20057,-0.12873 -0.46428,-0.60849 -0.586,-1.06613 -0.16721,-0.6286 -0.38854,-0.83207 -0.90509,-0.83207 -0.63719,0 -0.67909,-0.0923 -0.61534,-1.35598 0.0639,-1.26686 0.0231,-1.35597 -0.6216,-1.35597 -0.98968,0 -2.08947,-0.57117 -2.2821,-1.1852 -0.091,-0.29018 -0.28394,-0.52761 -0.42868,-0.52761 -0.14473,0 -0.26315,-0.25693 -0.26315,-0.57094 0,-0.31401 0.11842,-0.57093 0.26315,-0.57093 0.14474,0 0.35186,-0.28904 0.46028,-0.64231 0.10841,-0.35326 0.45317,-1.00993 0.76612,-1.45927 0.50779,-0.72907 0.69184,-0.8003 1.7106,-0.66206 1.92307,0.26096 2.87652,2.06617 2.03463,3.85228 l -0.48474,1.02839 0.87247,0.72567 c 0.48194,0.40083 0.87134,0.99846 0.86994,1.33512 -0.002,0.33709 0.31271,0.81845 0.70288,1.07708 0.75589,0.50108 0.93559,1.53476 0.36682,2.11018 -0.38832,0.39285 -1.32523,0.4431 -1.86019,0.0997 z m 61.76687,-8.29628 c -0.26867,-0.17212 -0.42706,-1.00608 -0.50069,-2.63621 -0.0592,-1.31144 -0.2306,-3.15521 -0.38083,-4.09725 -0.34601,-2.16976 -0.34835,-2.99742 -0.008,-2.99742 0.53704,0 1.13918,1.92971 1.6846,5.39865 0.63922,4.06557 0.44469,5.12615 -0.79459,4.33223 z m -2.38166,-13.06134 c -0.10347,-0.10467 -0.18821,-0.52217 -0.18832,-0.92777 -2.6e-4,-0.93167 -1.37167,-6.06963 -1.71696,-6.43255 -0.39142,-0.4114 -0.30841,-1.29888 0.1215,-1.29888 0.88067,0 1.60718,1.54998 2.71104,5.78391 0.31771,1.21856 0.57764,2.40682 0.57764,2.64058 0,0.42912 -1.1374,0.60651 -1.5049,0.23471 z m -3.36669,-12.86986 c -0.19312,-0.38278 -1.29736,-4.16645 -1.72873,-5.92346 -0.24891,-1.01382 -0.31706,-1.81855 -0.16701,-1.97191 0.47816,-0.4887 1.12673,0.46455 1.70711,2.50909 0.31726,1.11761 0.82374,2.58142 1.12551,3.25291 0.76051,1.69225 0.72141,2.34747 -0.1401,2.34747 -0.37882,0 -0.73737,-0.0963 -0.79678,-0.2141 z m -9.22191,-21.25148 c -0.17533,-0.205 -0.93962,-1.33619 -1.69842,-2.51374 -0.75879,-1.17756 -1.76457,-2.59063 -2.23507,-3.14015 l -0.85545,-0.99914 -0.009,0.8564 c -0.005,0.47102 0.30748,1.54358 0.69395,2.38346 0.84962,1.84637 0.9003,2.61224 0.17289,2.61224 -0.92502,0 -1.42855,-1.09311 -2.30124,-4.9957 -0.28088,-1.25606 -0.60029,-2.57791 -0.70979,-2.93743 -0.18437,-0.60535 -0.12349,-0.64855 0.8232,-0.58404 5.47151,2.51038 2.10231,0.83758 5.2194,2.473 2.27098,0.90942 2.94655,1.50274 2.37241,2.08359 -0.30935,0.31296 -1.0133,0.12954 -3.27779,-0.85405 -0.4062,-0.17643 0.40201,1.15018 1.85339,3.0422 0.76051,0.99139 1.34152,2.01908 1.29114,2.28377 -0.1156,0.60729 -0.91957,0.78105 -1.3399,0.28959 z"
       id="path11412"
       inkscape:connector-curvature="0"
       sodipodi:nodetypes="cccscccsccscscssscsscsssscscsccsscssscscssscccsscccssscssscscscccscssccsscsscccscssscssscsscscccsccscsscssscccccscccccsscccccccccssssssscccsssssssssscsscsssscsssssssssssssssssssssssssssssssssscssccscscssssssssssssssscssccssscsscsssssssccssssssssscssssssssscsssssssccsscccsssssssccsccssssssssssscsssssssssssssssssssssssscsccsssssscsssssssssssscsssssssssssssssssssssssssssscscccssscsssscsssssssssssssssccssssssssscsssscsscssssssssssssscssscccscssssccssscscsscssccsssssssssssssssccccsssscssscsssccsccssssssssscssscsscsssssccscssssssssssssssscsscscsscsssscssccscsssssccsccssssscsssccscsssccsssscsssssssssscccsccsscccscsscssscssssccssssccssssssscscsssssssssscsssscccccsccssssssssscssscssssssssssscssccscccccssssssscscccssssscscssscsscsscssccccsssscccssccsssscscssssssssscsssccscccccccscccssssscsssssssssscssscscssssssscssscsccssccsssccscssssscsssssccssccssssccsssscc" />
    <text
       xml:space="preserve"
       style="font-size:14.67612648px;font-style:italic;font-variant:normal;font-weight:normal;font-stretch:normal;line-height:125%;letter-spacing:0px;word-spacing:0px;fill:#000000;fill-opacity:1;stroke:none;font-family:Linux Libertine O;-inkscape-font-specification:Sans Italic"
       x="181.60085"
       y="392.39899"
       id="text11440"
       sodipodi:linespacing="125%"
       transform="scale(0.99748197,1.0025244)"><tspan
         sodipodi:role="line"
         id="tspan11442"
         x="181.60085"
         y="392.39899">transcontinental railroad</tspan></text>
    <text
       xml:space="preserve"
       style="font-size:14.67612648px;font-style:italic;font-variant:normal;font-weight:normal;font-stretch:normal;line-height:125%;letter-spacing:0px;word-spacing:0px;fill:#000000;fill-opacity:1;stroke:none;font-family:Linux Libertine O;-inkscape-font-specification:Sans Italic"
       x="214.9574"
       y="658.01581"
       id="text11444"
       sodipodi:linespacing="125%"
       transform="scale(0.99748197,1.0025244)"><tspan
         sodipodi:role="line"
         id="tspan11446"
         x="214.9574"
         y="658.01581">A–B by train and bicycle: 5 hours</tspan></text>
    <text
       xml:space="preserve"
       style="font-size:14.67612648px;font-style:italic;font-variant:normal;font-weight:normal;font-stretch:normal;line-height:125%;letter-spacing:0px;word-spacing:0px;fill:#000000;fill-opacity:1;stroke:none;font-family:Linux Libertine O;-inkscape-font-specification:Sans Italic"
       x="255.72652"
       y="637.83722"
       id="text11448"
       sodipodi:linespacing="125%"
       transform="scale(0.99748197,1.0025244)"><tspan
         sodipodi:role="line"
         id="tspan11450"
         x="255.72652"
         y="637.83722">100                               200 km</tspan></text>
    <text
       xml:space="preserve"
       style="font-size:14.67612648px;font-style:italic;font-variant:normal;font-weight:normal;font-stretch:normal;line-height:125%;letter-spacing:0px;word-spacing:0px;fill:#000000;fill-opacity:1;stroke:none;font-family:Linux Libertine O;-inkscape-font-specification:Sans Italic"
       x="197.45552"
       y="454.99393"
       id="text11452"
       sodipodi:linespacing="125%"
       transform="scale(0.99748197,1.0025244)"><tspan
         sodipodi:role="line"
         id="tspan11454"
         x="197.45552"
         y="454.99393">A</tspan></text>
    <text
       xml:space="preserve"
       style="font-size:14.67612648px;font-style:italic;font-variant:normal;font-weight:normal;font-stretch:normal;line-height:125%;letter-spacing:0px;word-spacing:0px;fill:#000000;fill-opacity:1;stroke:none;font-family:Linux Libertine O;-inkscape-font-specification:Sans Italic"
       x="394.09436"
       y="522.94244"
       id="text11456"
       sodipodi:linespacing="125%"
       transform="scale(0.99748197,1.0025244)"><tspan
         sodipodi:role="line"
         id="tspan11458"
         x="394.09436"
         y="522.94244">B</tspan></text>
  </g>
</svg>
